<svg width="98" height="82" viewBox="0 0 98 82" fill="none" xmlns="http://www.w3.org/2000/svg">
<path d="M66 16.1548C66 28.7272 50.1232 37.3875 49.3977 37.7761C49.1217 37.9341 48.8135 38 48.4989 38C48.1843 38 47.8826 37.9276 47.6065 37.7761C46.8233 37.3612 28.4809 27.3573 31.2929 13.2043C32.1468 8.89059 34.0728 6.03895 37.0261 4.74154C41.3148 2.8514 46.361 5.03791 48.4989 6.17067C50.6432 5.03791 55.6895 2.8514 59.9782 4.74154C62.9314 6.03895 64.8572 8.89059 65.7111 13.2043C65.9101 14.2119 66 15.1932 66 16.1614V16.1548Z" fill="#15EB1D"/>
<path d="M50.2354 73.7577C56.3641 79.8828 61.7089 82 66.276 82H66.3148C71.4718 81.987 75.631 79.2677 78.8184 76.5936C78.8314 76.5807 78.8444 76.5677 78.8573 76.5548C78.8703 76.5418 78.8897 76.5289 78.9027 76.5159L80.8657 74.6123L96.317 59.6363C97.833 58.1082 99.1093 54.7997 96.4919 51.8731C95.9412 51.2515 95.3776 50.8306 94.8464 50.5328L95.6497 49.7688C95.708 49.717 95.7534 49.6652 95.7987 49.6134C97.0102 48.1436 98.5586 44.6473 95.7793 41.902C95.1897 41.3193 93.8163 40.0826 93.2073 39.8171C93.9459 38.7747 95.87 35.6021 93.7126 33.323C91.2961 30.7719 88.5687 31.6201 87.9143 31.8726C87.6163 30.9468 86.9685 29.8396 85.6209 28.8166C84.6491 28.0784 82.9453 27.4633 80.3215 28.7324C77.9892 29.859 72.0095 35.615 67.8114 39.8107C67.7272 38.3927 67.2866 36.9812 66.3148 35.6863C66.2825 35.6474 66.2501 35.6021 66.2112 35.5632C65.965 35.2913 64.6501 33.9316 63.0499 33.9057H63.0175C62.2466 33.9057 61.521 34.223 60.9703 34.7927C59.4219 36.4244 54.1095 42.2387 50.2354 49.322C44.5861 59.6428 44.5861 68.0923 50.2483 73.7447L50.2354 73.7577Z" fill="#63F36F"/>
<path d="M69.9366 69.7628L66.3662 82C71.5148 81.987 75.6672 79.2677 78.8495 76.5936C78.8625 76.5807 78.8754 76.5677 78.8883 76.5548C78.9013 76.5418 78.9207 76.5289 78.9336 76.5159L80.8934 74.6123L96.3197 59.6363C97.8333 58.1082 99.1075 54.7997 96.4944 51.8731C95.9446 51.2515 95.3819 50.8306 94.8515 50.5328L95.6535 49.7688C95.7117 49.717 95.757 49.6652 95.8023 49.6134C97.0118 48.1436 98.5577 44.6473 95.7829 41.902C95.1943 41.3193 93.8231 40.0826 93.2151 39.8171C93.9524 38.7747 95.8734 35.6021 93.7196 33.323C91.307 30.7719 88.5839 31.6201 87.9307 31.8726C87.6331 30.9468 86.9863 29.8396 85.641 28.8166C84.6708 28.0784 82.9697 27.4633 80.3501 28.7324C78.0216 29.859 72.0516 35.615 67.8603 39.8107C67.8603 39.8107 66.0687 48.7328 62 52.8831C62 52.8831 71.5148 59.5456 69.943 69.7563L69.9366 69.7628Z" fill="#15EB1D"/>
<path d="M88 32L74 45" stroke="#65FF6A" stroke-width="1.57" stroke-linecap="round" stroke-linejoin="round"/>
<path d="M93 40L80 52" stroke="#65FF6A" stroke-width="1.57" stroke-linecap="round" stroke-linejoin="round"/>
<path d="M94 51L84 60" stroke="#65FF6A" stroke-width="1.57" stroke-linecap="round" stroke-linejoin="round"/>
<path d="M86 62.91C86 62.91 79.7034 47.9602 67.7864 40C67.7864 40 65.6939 48.1751 62 53.1519C62 53.1519 74.1149 62.3823 68.4435 75" stroke="#65FF6A" stroke-width="1.57" stroke-linecap="round" stroke-linejoin="round"/>
<path d="M47.7647 73.7577C41.636 79.8828 36.2912 82 31.7239 82H31.685C26.5281 81.987 22.3689 79.2677 19.1815 76.5936C19.1685 76.5807 19.1556 76.5677 19.1426 76.5548C19.1296 76.5418 19.1102 76.5289 19.0973 76.5159L17.1343 74.6123L1.68299 59.6363C0.167015 58.1082 -1.10925 54.7997 1.50807 51.8731C2.05874 51.2515 2.62237 50.8306 3.15361 50.5328L2.35028 49.7688C2.29197 49.717 2.24662 49.6652 2.20127 49.6134C0.989789 48.1436 -0.558577 44.6473 2.22071 41.902C2.81025 41.3193 4.1837 40.0826 4.79268 39.8171C4.05413 38.7747 2.13001 35.6021 4.28735 33.323C6.70386 30.7719 9.43131 31.6201 10.0856 31.8726C10.3837 30.9468 11.0315 29.8396 12.379 28.8166C13.3508 28.0784 15.0547 27.4633 17.6785 28.7324C20.0107 29.859 25.9904 35.615 30.1885 39.8107C30.2727 38.3927 30.7132 36.9812 31.685 35.6863C31.7174 35.6474 31.7498 35.6021 31.7887 35.5632C32.0348 35.2913 33.35 33.9316 34.9502 33.9057H34.9826C35.7535 33.9057 36.4791 34.223 37.0298 34.7927C38.5781 36.4244 43.8905 42.2387 47.7647 49.322C53.4139 59.6428 53.4139 68.0923 47.7517 73.7447L47.7647 73.7577Z" fill="#15EB1D"/>
<path d="M28.0637 69.7628L31.634 82C26.4854 81.987 22.3329 79.2677 19.1506 76.5936C19.1377 76.5807 19.1247 76.5677 19.1118 76.5548C19.0989 76.5418 19.0795 76.5289 19.0665 76.5159L17.1067 74.6123L1.68028 59.6363C0.166746 58.1082 -1.10746 54.7997 1.50564 51.8731C2.05543 51.2515 2.61816 50.8306 3.14854 50.5328L2.3465 49.7688C2.28828 49.717 2.24301 49.6652 2.19773 49.6134C0.988197 48.1436 -0.557678 44.6473 2.21713 41.902C2.80573 41.3193 4.17697 40.0826 4.78497 39.8171C4.04761 38.7747 2.12658 35.6021 4.28046 33.323C6.69307 30.7719 9.41614 31.6201 10.0694 31.8726C10.367 30.9468 11.0138 29.8396 12.3591 28.8166C13.3293 28.0784 15.0304 27.4633 17.65 28.7324C19.9785 29.859 25.9486 35.615 30.1399 39.8107C30.1399 39.8107 31.9316 48.7328 36 52.8831C36 52.8831 26.4854 59.5456 28.0572 69.7563L28.0637 69.7628Z" fill="#63F36F"/>
<path d="M10 32L24 45" stroke="#65FF6A" stroke-width="1.57" stroke-linecap="round" stroke-linejoin="round"/>
<path d="M5 40L18 52" stroke="#65FF6A" stroke-width="1.57" stroke-linecap="round" stroke-linejoin="round"/>
<path d="M3 51L13 60" stroke="#65FF6A" stroke-width="1.57" stroke-linecap="round" stroke-linejoin="round"/>
<path d="M12 62.91C12 62.91 18.2967 47.9602 30.2137 40C30.2137 40 32.3062 48.1751 36 53.1519C36 53.1519 23.8852 62.3823 29.5566 75" stroke="#65FF6A" stroke-width="1.57" stroke-linecap="round" stroke-linejoin="round"/>
<path d="M88 15.208C88 15.208 78.6407 13.0292 77 22.7747C86.9338 24.554 88 15.208 88 15.208Z" fill="#15EB1D"/>
<path d="M77.7071 0C77.7071 0 68.1596 1.35394 70.3175 11C80.2557 9.07203 77.7071 0 77.7071 0Z" fill="#15EB1D"/>
<path d="M10 15.208C10 15.208 19.3593 13.0292 21 22.7747C11.0662 24.554 10 15.208 10 15.208Z" fill="#15EB1D"/>
<path d="M19.2929 0C19.2929 0 28.8404 1.35394 26.6825 11C16.7443 9.07203 19.2929 0 19.2929 0Z" fill="#15EB1D"/>
<path d="M67 16.1548C67 28.7272 50.6706 37.3875 49.9244 37.7761C49.6405 37.9341 49.3236 38 49 38C49 38 64.0286 28.7864 61.5062 13.9814C60.0536 5.4528 49 6.17067 49 6.17067C51.2054 5.03791 56.3955 2.8514 60.8063 4.74154C63.8437 6.03895 65.8247 8.89059 66.7029 13.2043C66.9076 14.2119 67 15.1932 67 16.1614V16.1548Z" fill="#63F36F"/>
</svg>
