<?xml version="1.0" encoding="UTF-8"?>
<svg width="1379.44593px" height="641.4375px" viewBox="0 0 1379.44593 641.4375" version="1.1" xmlns="http://www.w3.org/2000/svg" xmlns:xlink="http://www.w3.org/1999/xlink">
    <title>logo-white-emblem</title>
    <g id="Page-1" stroke="none" stroke-width="1" fill="none" fill-rule="evenodd">
        <g id="logo-white-emblem">
            <circle id="Oval" fill="#FFFFFF" cx="1058.94593" cy="320.5" r="320.5"></circle>
            <path d="M1058.44593,0.21875 C918.0518,0.21875 798.74802,90.480785 755.35218,216.125 L774.16468,216.125 L774.16468,341.90625 C774.16463,355.89538 776.22251,366.29714 780.35218,373.15625 C784.48173,380.01544 791.20135,383.43753 800.47718,383.4375 C809.62577,383.43753 816.28393,380.15094 820.47718,373.5625 C824.73375,366.97415 826.8521,356.43689 826.85218,341.90625 L826.85218,216.125 L863.63343,216.125 L863.63343,344.75 C863.63334,369.6596 858.30679,388.73298 847.63343,402 C836.95982,415.26705 821.25222,421.90625 800.47718,421.90625 C779.70197,421.90625 763.96311,415.26705 753.28968,402 C749.97407,397.85406 747.16291,393.1491 744.88343,387.875 C775.71386,532.7423 904.38548,641.4375 1058.44593,641.4375 C1202.01813,641.4375 1323.54933,547.06706 1364.38343,416.96875 L1355.22713,379.0625 L1302.63343,379.0625 L1292.82093,419.8125 L1255.94593,419.8125 L1308.35213,218.21875 L1350.47713,218.21875 L1378.97713,327.8125 C1379.02653,325.49796 1379.03973,323.17012 1379.03973,320.84375 C1379.03973,143.78401 1235.50563,0.21875 1058.44593,0.21875 Z M885.38343,218.21875 L929.10218,218.21875 L980.85213,333.6875 L980.85213,218.21875 L1014.41473,218.21875 L1014.41473,419.8125 L979.13343,419.8125 L918.91468,281.4375 L918.91468,419.8125 L885.38343,419.8125 L885.38343,218.21875 Z M1034.03973,218.21875 L1135.72713,218.21875 L1135.72713,257.21875 L1070.44593,257.21875 L1070.44593,294.71875 L1130.94593,294.71875 L1130.94593,333.6875 L1070.44593,333.6875 L1070.44593,419.8125 L1034.03973,419.8125 L1034.03973,218.21875 Z M1150.16473,218.21875 L1210.41473,218.21875 C1219.43623,218.21875 1227.03313,219.33766 1233.19593,221.59375 C1239.42203,223.76 1244.89953,227.07783 1249.66473,231.5 C1255.38233,236.82505 1259.74103,243.63449 1262.72713,251.9375 C1265.77673,260.24086 1267.28973,270.20139 1267.28973,281.84375 C1267.28973,290.86907 1266.20073,299.71093 1263.97713,308.375 C1261.75343,316.94904 1258.57543,324.16495 1254.44593,330.03125 C1248.79143,337.9735 1242.46563,344.00122 1235.47713,348.0625 C1228.55213,352.1239 1219.89533,354.15631 1209.53973,354.15625 L1186.78973,354.15625 L1186.78973,419.8125 L1150.16473,419.8125 L1150.16473,218.21875 Z M1186.78973,255.84375 L1186.78973,316.25 L1197.25843,316.25 C1203.48453,316.25 1208.59943,315.70814 1212.60213,314.625 C1216.66833,313.54209 1220.05763,311.37418 1222.78973,308.125 C1225.14023,305.23706 1226.83563,301.78372 1227.85213,297.8125 C1228.93223,293.75129 1229.47713,288.83876 1229.47713,283.0625 C1229.47713,277.37677 1228.38733,272.49899 1226.22713,268.4375 C1224.06703,264.28606 1221.55473,261.40594 1218.69593,259.78125 C1214.88383,257.61536 1211.16093,256.43066 1207.53973,256.25 C1203.91813,255.97941 1199.10653,255.84375 1193.07093,255.84375 L1186.78973,255.84375 Z M1328.94593,269.8125 L1311.50843,342.09375 L1346.38343,342.09375 L1328.94593,269.8125 Z" id="path3207" fill="#E38A15" fill-rule="nonzero"></path>
            <g id="g4020" transform="translate(0.000000, 1.731515)" fill-rule="nonzero">
                <g id="g3072" transform="translate(449.934479, 208.521196)" fill="#FFFFFF">
                    <g id="g4303" transform="translate(0.000000, 8.936551)">
                        <path d="M165.397579,207.40321 C163.891752,209.123743 161.943171,210.732275 160.106003,212.214892 C148.237103,199.948785 134.302874,186.354376 121.058141,186.354376 C112.846682,186.354376 106.932401,192.605348 100.032483,197.015614 C90.4571658,203.135936 77.3226335,206.582692 66.0669362,202.090745 C60.0128716,199.792254 54.1473959,196.406318 49.7639621,190.905839 C58.6230979,197.015614 71.8895871,197.836792 81.890598,193.687707 C92.9451737,189.101536 104.196768,183.011717 116.794976,183.011717 C135.365936,183.011717 153.015954,195.57373 165.397579,207.40321 Z M28.140395,168.824431 C40.435956,182.820792 60.4899479,178.317788 76.9036706,181.813428 C79.1883376,182.299996 81.3346919,183.058707 83.7869575,182.682105 C81.8354753,181.444948 79.2489553,181.305361 76.994776,180.456155 C64.2592002,175.658347 62.2736415,162.028191 55.3038944,152.647377 C64.205978,158.565655 71.5812497,166.668171 79.9060399,174.282549 C85.6998912,179.581972 92.9182468,181.849405 100.404446,183.37264 C98.6055756,184.030099 96.2523252,183.875027 94.31498,184.355637 C80.8677614,187.691576 65.958541,192.957332 51.6498739,188.235391 C42.415785,185.18809 32.80643,177.971395 28.140395,168.824431 L28.140395,168.824431 Z M8.43117593,136.430287 C16.1007374,153.79459 35.3699752,155.154485 48.1821169,165.806974 C50.6183616,167.832557 53.0332583,169.696595 55.7095141,170.944775 L55.84762,170.804931 C52.891094,168.129838 49.6916502,164.941781 47.4016392,161.614449 C40.0787791,150.974515 42.5156778,136.430863 36.8695527,125.150217 C41.9992313,131.29248 46.8107398,137.617323 49.7645434,144.649958 C54.5178938,155.967083 56.1325354,168.877821 66.7934483,177.477571 C55.2551555,173.670933 41.9448744,174.428575 31.5547622,167.623252 C20.6333061,160.469902 10.5114791,149.179044 8.43117593,136.430287 Z M0.215563491,101.299532 C1.32448013,116.598044 17.6120092,124.770356 25.3782604,137.345969 C27.0369789,140.031873 28.7438886,142.804663 31.1526306,144.973751 C30.7771912,143.344906 29.4369391,141.901725 28.6992079,140.303658 C26.2082765,134.907835 25.0809073,128.663348 25.7026354,122.24243 C26.4590818,114.430185 29.7158564,107.176031 28.4659327,98.957523 C35.1600437,113.406504 33.0006927,131.469694 36.8695527,147.092938 C37.7254336,150.549158 39.8301426,153.573507 41.1270669,156.846867 C34.549926,151.843488 25.9305498,147.402287 18.7110651,141.711711 C11.7291599,136.208398 5.66884007,129.758117 2.51869978,121.365045 C0.248790295,115.317224 -0.341505348,108.103324 0.215563491,101.299532 L0.215563491,101.299532 Z M0.670503509,73.1118375 C1.45620787,69.6974703 2.05737601,66.1635616 3.54289478,63.0312086 C0.730277098,77.4627824 10.331085,87.8875861 13.6090177,100.373407 C14.8442846,105.0786 15.2668754,110.078016 17.1696186,114.468415 C17.3471841,114.563584 17.5009531,114.379053 17.6106284,114.236883 C12.873802,100.949046 19.8175333,88.6685501 26.581765,78.1945156 C28.3597679,75.4413808 29.2156544,72.2356147 30.0460338,68.9947491 C30.7771912,75.0099355 29.4968916,81.9731925 28.3841123,88.1805566 C26.9514858,96.1721005 24.2200234,103.661855 22.0491906,111.372039 C20.6199629,116.188947 20.996565,121.625012 21.7300366,126.671713 L21.0406643,126.121604 C16.0044109,116.824354 6.06836668,109.561318 3.06764638,99.4142015 C0.669396694,91.3043737 -0.98967399,81.9350018 0.670503509,73.1118375 L0.670503509,73.1118375 Z M5.98239288,57.587597 C5.98239288,46.6667391 10.234686,37.7576793 16.6131256,29.6244686 C16.7982375,29.5322061 16.9299597,29.3465184 17.1690373,29.3900363 C10.1470631,40.0712576 16.5383149,53.5544086 15.6359366,65.6697433 L14.7098066,78.1039916 C14.8473367,78.1945156 14.8473367,78.5676352 15.1734502,78.424884 C15.5883548,77.0385929 15.7142745,75.5640304 15.955672,74.13255 C17.6461136,64.1082288 26.4485503,57.1309409 33.9136025,50.0538217 C35.6794082,48.3797754 36.9722629,46.4003769 37.8049622,44.2730676 C37.1840614,49.2663788 35.7911629,54.3851402 33.5497679,58.9228238 C27.8037388,70.5555984 16.7059694,79.9457985 14.7098066,93.1657455 C13.7419026,80.4959078 5.98239288,71.0772939 5.98239288,57.587597 L5.98239288,57.587597 Z M24.4915955,20.7479256 C28.0225919,16.8330713 31.9801089,13.7833996 36.6914059,12.5769939 C27.5427094,18.8678162 28.0394457,30.1107852 25.238416,39.5112876 C24.2142266,42.9485457 22.7089696,46.1688458 21.9087649,49.7213188 L22.140296,49.9064308 C23.6623732,45.8903086 26.2739027,42.0297888 29.6763968,38.8195954 C36.111256,32.7484087 45.785561,29.0737835 48.9695597,20.1931766 C48.8239074,32.5339941 38.3047058,41.9149651 28.6968825,49.1723722 C24.3876667,52.4274028 20.7255743,56.79784 18.4909151,61.3791533 C18.864303,57.9692805 19.0338861,55.132816 18.7294114,51.8045232 C17.7432226,41.0242587 17.1036961,28.9389757 24.4915955,20.7479256 Z M61.6248915,8.52651283e-14 C54.8350298,5.95773818 50.3045573,13.6261649 45.0886422,20.5198715 C40.7504815,26.2534797 34.7979532,29.8060981 29.6787167,34.617204 C32.442014,28.8840319 32.9522221,22.3147059 36.4616132,16.7683618 C42.4625899,7.28423896 52.3804443,3.60296171 61.6248915,8.52651283e-14 L61.6248915,8.52651283e-14 Z" id="path4290"></path>
                        <path d="M95.2190409,207.40321 C96.724868,209.123743 98.673449,210.732275 100.510616,212.214892 C112.379517,199.948785 126.313745,186.354376 139.558478,186.354376 C147.769937,186.354376 153.684219,192.605348 160.584136,197.015614 C170.159454,203.135936 183.293986,206.582692 194.549683,202.090745 C200.603748,199.792254 206.469224,196.406318 210.852658,190.905839 C201.993522,197.015614 188.727033,197.836792 178.726022,193.687707 C167.671446,189.101536 156.419852,183.011717 143.821644,183.011717 C125.250683,183.011717 107.600665,195.57373 95.2190409,207.40321 L95.2190409,207.40321 Z M232.476225,168.824431 C220.180664,182.820792 200.126672,178.317788 183.712949,181.813428 C181.428282,182.299996 179.281928,183.058707 176.829662,182.682105 C178.781144,181.444948 181.367664,181.305361 183.621844,180.456155 C196.357419,175.658347 198.342978,162.028191 205.312725,152.647377 C196.410642,158.565655 189.03537,166.668171 180.71058,174.282549 C174.916728,179.581972 167.698373,181.849405 160.212174,183.37264 C162.011044,184.030099 164.364294,183.875027 166.30164,184.355637 C179.748858,187.691576 194.658079,192.957332 208.966746,188.235391 C218.200835,185.18809 227.81019,177.971395 232.476225,168.824431 L232.476225,168.824431 Z M252.185444,136.430287 C244.515882,153.79459 225.246644,155.154485 212.434503,165.806974 C209.998258,167.832557 207.583361,169.696595 204.907105,170.944775 L204.769,170.804931 C207.725526,168.129838 210.924969,164.941781 213.21498,161.614449 C220.537841,150.974515 218.100942,136.430863 223.747067,125.150217 C218.617388,131.29248 213.80588,137.617323 210.852076,144.649958 C206.098726,155.967083 204.484084,168.877821 193.823171,177.477571 C205.361464,173.670933 218.671745,174.428575 229.061857,167.623252 C239.983313,160.469902 250.105141,149.179044 252.185444,136.430287 Z M260.401056,101.299532 C259.292139,116.598044 243.00461,124.770356 235.238359,137.345969 C233.579641,140.031873 231.872731,142.804663 229.463989,144.973751 C229.839428,143.344906 231.179681,141.901725 231.917412,140.303658 C234.408343,134.907835 235.535712,128.663348 234.913984,122.24243 C234.157538,114.430185 230.900763,107.176031 232.150687,98.957523 C225.456576,113.406504 227.615927,131.469694 223.747067,147.092938 C222.891186,150.549158 220.786477,153.573507 219.489553,156.846867 C226.066694,151.843488 234.68607,147.402287 241.905555,141.711711 C248.88746,136.208398 254.94778,129.758117 258.09792,121.365045 C260.367829,115.317224 260.958125,108.103324 260.401056,101.299532 L260.401056,101.299532 Z M259.946116,73.1118375 C259.160412,69.6974703 258.559244,66.1635616 257.073725,63.0312086 C259.886343,77.4627824 250.285535,87.8875861 247.007602,100.373407 C245.772335,105.0786 245.349744,110.078016 243.447001,114.468415 C243.269435,114.563584 243.115666,114.379053 243.005991,114.236883 C247.742818,100.949046 240.799086,88.6685501 234.034855,78.1945156 C232.256852,75.4413808 231.400965,72.2356147 230.570586,68.9947491 C229.839428,75.0099355 231.119728,81.9731925 232.232507,88.1805566 C233.665134,96.1721005 236.396596,103.661855 238.567429,111.372039 C239.996657,116.188947 239.620055,121.625012 238.886583,126.671713 L239.575955,126.121604 C244.612209,116.824354 254.548253,109.561318 257.548973,99.4142015 C259.947223,91.3043737 261.606294,81.9350018 259.946116,73.1118375 L259.946116,73.1118375 Z M254.634227,57.587597 C254.634227,46.6667391 250.381934,37.7576793 244.003494,29.6244686 C243.818382,29.5322061 243.68666,29.3465184 243.447582,29.3900363 C250.469556,40.0712576 244.078305,53.5544086 244.980683,65.6697433 L245.906813,78.1039916 C245.769283,78.1945156 245.769283,78.5676352 245.443169,78.424884 C245.028265,77.0385929 244.902345,75.5640304 244.660948,74.13255 C242.970506,64.1082288 234.168069,57.1309409 226.703017,50.0538217 C224.937211,48.3797754 223.644357,46.4003769 222.811657,44.2730676 C223.432558,49.2663788 224.825457,54.3851402 227.066852,58.9228238 C232.812881,70.5555984 243.91065,79.9457985 245.906813,93.1657455 C246.874717,80.4959078 254.634227,71.0772939 254.634227,57.587597 L254.634227,57.587597 Z M236.125024,20.7479256 C232.594028,16.8330713 228.636511,13.7833996 223.925214,12.5769939 C233.07391,18.8678162 232.577174,30.1107852 235.378204,39.5112876 C236.402393,42.9485457 237.90765,46.1688458 238.707855,49.7213188 L238.476324,49.9064308 C236.954246,45.8903086 234.342717,42.0297888 230.940223,38.8195954 C224.505364,32.7484087 214.831059,29.0737835 211.64706,20.1931766 C211.792712,32.5339941 222.311914,41.9149651 231.919737,49.1723722 C236.228953,52.4274028 239.891045,56.79784 242.125704,61.3791533 C241.752317,57.9692805 241.582734,55.132816 241.887208,51.8045232 C242.873397,41.0242587 243.512924,28.9389757 236.125024,20.7479256 L236.125024,20.7479256 Z M198.991728,2.84217094e-14 C205.78159,5.95773818 210.312062,13.6261649 215.527977,20.5198715 C219.866138,26.2534797 225.818666,29.8060981 230.937903,34.617204 C228.174606,28.8840319 227.664398,22.3147059 224.155006,16.7683618 C218.15403,7.28423896 208.236175,3.60296171 198.991728,2.84217094e-14 L198.991728,2.84217094e-14 Z" id="path4301"></path>
                    </g>
                    <path d="M213.237723,132.294165 L211.232264,131.199927 C206.980362,139.96836 201.350308,147.948048 194.615507,154.849988 L182.899481,143.133962 C188.639266,137.219211 193.267206,130.505653 196.676531,123.249867 L194.680239,122.158648 C191.309932,129.353503 186.775457,135.899921 181.306786,141.540205 L170.693662,130.927081 C175.24977,126.190584 178.865085,120.786309 181.474485,114.945905 L179.493846,113.865139 C176.938445,119.621135 173.413072,124.855587 169.105438,129.342099 L157.376555,117.613216 C160.638361,114.1566 163.156588,110.179669 164.870474,105.875948 L162.889388,104.795183 C161.251749,108.991744 158.830955,112.801702 155.798506,116.033266 L145.15296,105.389397 C148.185576,102.005115 149.94435,97.7590829 150.193215,93.2228192 L165.261549,93.2228192 C165.133432,97.2943325 164.299347,101.189091 162.889611,104.795742 L164.870698,105.876507 C166.456518,101.889123 167.352031,97.6240291 167.480154,93.2224838 L184.090761,93.2224838 C183.94129,100.55597 182.306217,107.529463 179.493287,113.865698 L181.473926,114.946464 C184.494301,108.182036 186.163355,100.831221 186.311098,93.2215894 L201.350923,93.2215894 C201.192732,103.549066 198.810336,113.341582 194.679289,122.158648 L196.67558,123.249867 C201.042524,113.957094 203.415971,103.771603 203.57249,93.2216453 L220.181979,93.2216453 C220.016382,106.815903 216.813852,119.687376 211.231313,131.199927 L213.237667,132.293717 C219.242975,119.924782 222.430938,106.265681 222.430938,92.1113088 C222.430938,80.0744182 220.124794,68.3969629 215.743093,57.5635937 L213.68492,58.4482071 C217.811775,68.6711511 220.048547,79.6649526 220.18606,91.0008605 L203.574335,91.0008605 C203.439678,81.9574009 201.662564,73.18785 198.411659,65.0130723 L196.368747,65.888574 C199.50461,73.7916789 201.221179,82.2638432 201.353662,91.0009723 L186.31216,91.0009723 C186.184044,84.3410775 184.884984,77.8790678 182.54094,71.8329521 L180.498029,72.7106339 C182.727478,78.4806049 183.963812,84.646905 184.093667,91.0010282 L167.481383,91.0010282 C167.363726,86.9404153 166.59459,82.9917137 165.23058,79.2721452 L163.18806,80.1484853 C164.440941,83.5937539 165.145166,87.2449571 165.262834,91.0008605 L150.194501,91.0008605 C149.945675,86.4639259 148.186862,82.2184526 145.154245,78.8342825 L155.810412,68.1797924 C159.101006,71.6795632 161.589886,75.743586 163.188619,80.1490443 L165.231139,79.2727042 C163.520272,74.612902 160.872469,70.3136531 157.378344,66.6102955 L169.124556,54.8652015 C174.136918,60.08238 177.962864,66.1396197 180.498476,72.7106339 L182.541388,71.8329521 C179.894032,65.0075941 175.908884,58.7144016 170.694556,53.295481 L181.33004,42.6583199 C187.916706,49.451256 192.97731,57.3336781 196.368747,65.889133 L198.411659,65.0136313 C194.907528,56.2027146 189.688505,48.0843956 182.90004,41.0907794 L194.644575,29.3440085 C202.950717,37.8530666 209.357945,47.7266373 213.684585,58.4487661 L215.742758,57.5641527 C211.170997,46.2506047 204.336416,35.8594024 195.447799,26.9713441 C186.526759,18.0491869 176.089719,11.199233 164.72698,6.62663444 L163.908607,8.71012948 C174.654214,13.0383344 184.549586,19.4529411 193.074296,27.7747351 L181.329761,39.5209471 C174.454093,32.8576983 166.48838,27.6925625 157.840691,24.1932389 L157.030145,26.258846 C165.392186,29.6514011 173.100201,34.6471607 179.760655,41.1080524 L169.12573,51.7435366 C163.955619,46.7699692 157.993856,42.907465 151.531287,40.2634074 L150.7194,42.3290145 C156.903029,44.8630614 162.60592,48.5590403 167.556401,53.313872 L155.811866,65.058407 C152.508191,61.9442885 148.730487,59.5004637 144.648688,57.795913 L143.836409,59.863253 C147.64033,61.4573459 151.158157,63.7316826 154.242145,66.6287983 L143.587655,77.2832884 C140.201193,74.2502245 135.956782,72.4918423 131.418841,72.2443183 L131.418841,57.1765439 C135.74917,57.3098927 139.941874,58.2298068 143.836409,59.8635884 L144.648688,57.7962484 C140.498747,56.0622944 136.030067,55.0913719 131.418897,54.955815 L131.418897,38.3446489 C138.144754,38.4797418 144.661545,39.8467866 150.719959,42.3294617 L151.531846,40.2638546 C145.21853,37.68056 138.425594,36.2612097 131.418562,36.1261001 L131.418562,21.0778906 C140.337924,21.2138555 148.986172,22.9927361 157.029586,26.2536474 L157.840132,24.1880402 C149.540698,20.8260064 140.621336,18.9948428 131.418003,18.8584474 L131.418003,2.24560427 C142.73211,2.38243565 153.705787,4.61234328 163.909725,8.72102992 L164.728098,6.63753489 C153.931622,2.29060356 142.297769,-2.84217094e-14 130.309511,-2.84217094e-14 C115.498875,-2.84217094e-14 101.504935,3.53375784 89.0951931,9.76959721 L90.1075373,11.7070821 C102.115919,5.69003433 115.40161,2.41207369 129.199901,2.24549248 L129.199901,18.8588946 C117.946725,19.0262361 107.313477,21.7568488 97.8306452,26.465731 L98.8394677,28.3979613 C108.181991,23.7729847 118.494934,21.2394409 129.199733,21.0762136 L129.199733,36.1182741 C120.832102,36.2829995 112.914463,38.2954571 105.828053,41.7540857 L106.842969,43.6950364 C113.741555,40.3464744 121.32715,38.4957459 129.200069,38.3371024 L129.200069,54.9499456 C123.979425,55.1042121 119.027993,56.3409546 114.557132,58.4388159 L115.577303,60.3872013 C119.806565,58.4213752 124.420641,57.3162374 129.200069,57.1684944 L129.200069,72.2385047 C126.862565,72.368371 124.63306,72.9017551 122.578186,73.7685364 L123.596623,75.7160274 C125.698397,74.8553392 127.969268,74.40216 130.309623,74.40216 C135.042654,74.40216 139.491714,76.2450625 142.83899,79.5914445 C146.185819,82.9382736 148.028722,87.3888989 148.028722,92.1224887 C148.028722,101.892645 140.081456,109.843824 130.309623,109.843824 C125.575306,109.843824 121.125296,108.000027 117.778578,104.653198 C114.431805,101.304636 112.5884,96.8557431 112.5884,92.1221533 C112.5884,87.3886753 114.431749,82.9378264 117.778578,79.5911091 C119.471558,77.8989681 121.446104,76.5960011 123.596064,75.715692 L122.577627,73.7682011 C120.535554,74.6306222 118.666937,75.8224605 117.037963,77.2814996 L106.377324,66.6208606 C109.131448,64.0327586 112.232821,61.9401519 115.576185,60.3863628 L114.556014,58.4379774 C110.960376,60.1257582 107.676434,62.3687352 104.81828,65.0632144 L93.0614472,53.3058225 C97.1843883,49.3454378 101.834352,46.1271781 106.84241,43.6944215 L105.827494,41.7534708 C100.538428,44.334194 95.7102004,47.7168549 91.5110121,51.7539339 L80.856522,41.1005619 C86.2340768,35.8829362 92.3025524,31.6317052 98.8383497,28.3973464 L97.8295272,26.4651161 C90.9879582,29.8633729 84.7394855,34.2860484 79.309944,39.5551577 L67.5408131,27.7854679 C74.2879115,21.1988017 81.9008968,15.81957 90.1064194,11.7070262 L89.0940751,9.76954131 C71.1575262,18.7833741 56.5548376,33.4727072 47.6628663,51.4802488 L49.5929165,52.5217727 C53.7397827,44.0876203 59.2244414,36.2678059 65.9715398,29.3541263 L77.7417886,41.1243752 C72.2666329,46.7652177 67.6921337,53.2820092 64.2470329,60.4410886 L66.1697043,61.4791467 C69.4511308,54.6241619 73.8508873,48.2750696 79.2860189,42.6700029 L89.9410679,53.323934 C85.6464588,57.7915528 82.0933037,62.9711108 79.4593081,68.6605861 L81.3863397,69.7003771 C83.867226,64.2919098 87.2574892,59.2834609 91.4924534,54.8752076 L103.249286,66.6325995 C100.244116,69.8207852 97.7963786,73.5390121 96.058903,77.629755 L98.0015865,78.6804464 C99.5983067,74.8433766 101.88701,71.294973 104.806262,68.1897426 L115.466901,78.8492636 C112.540214,82.120684 110.682051,86.3498905 110.424074,91.0108106 L95.3523862,91.0108106 C95.486171,86.7135742 96.3921772,82.5498263 98.0014748,78.6798874 L96.0587912,77.629196 C94.3034835,81.7616959 93.2741457,86.2763264 93.1333902,91.0104752 L76.522783,91.0104752 C76.6722589,83.5350033 78.3486921,76.3166701 81.3856689,69.6992591 L79.4586373,68.6594681 C76.2978984,75.4837081 74.4610889,83.0435887 74.3059671,91.0109783 L59.2616706,91.0109783 C59.4194253,80.622571 61.802705,70.600866 66.1697602,61.4780288 L64.2470888,60.4399706 C59.7785755,69.7193271 57.2087527,80.0769896 57.0455255,91.0109783 L40.4315644,91.0109783 C40.5949817,77.4435529 43.765313,64.3702812 49.5918544,52.5212137 L47.6618042,51.4796898 C41.6050676,63.7474463 38.1856806,77.5395887 38.1856806,92.1210353 C38.1856806,101.040398 39.4594679,109.757962 41.8928394,118.085346 L44.0686808,117.538003 C41.7808164,109.7344 40.5322957,101.576951 40.4316762,93.2316793 L57.0428423,93.2316793 C57.1452506,100.190079 58.2172958,106.989164 60.1852461,113.480241 L62.3392866,112.937259 C60.4127021,106.622266 59.3655323,100.004296 59.2613911,93.2314836 L74.3028926,93.2314836 C74.4113996,98.7480611 75.32133,104.130815 76.9594159,109.253467 L79.1169781,108.709176 C77.5198107,103.76395 76.6312844,98.5622559 76.5232302,93.2316569 L93.1338374,93.2316569 C93.2497567,97.1767809 93.979265,101.015695 95.2713315,104.641911 L97.4301794,104.096749 C96.178193,100.648406 95.4696079,96.9913335 95.3523862,93.2320762 L110.422397,93.2320762 C110.671229,97.7685635 112.42875,102.014484 115.461311,105.398654 L104.806262,116.054262 C101.519189,112.555833 99.0307007,108.497177 97.4297322,104.096749 L95.2708843,104.641911 C96.9761059,109.423296 99.6635417,113.835741 103.236597,117.622949 L91.4920621,129.368602 C85.7791088,123.420869 81.5978084,116.371912 79.12145,108.713648 L76.9638879,109.257939 C79.5354435,117.299675 83.9200512,124.697446 89.9275961,130.941447 L79.2904349,141.579167 C71.3359022,133.376439 65.5905272,123.59119 62.3444294,112.940613 L60.1903889,113.483601 C63.5354292,124.516532 69.4792483,134.656745 77.7205467,143.147915 L65.9754528,154.893568 C55.5803375,144.242432 48.1557343,131.458721 44.0739354,117.541922 L41.898094,118.089264 C46.1796226,132.741145 54.0786469,146.171616 65.1736269,157.26436 C72.6871107,164.77952 81.2749874,170.828431 90.5850888,175.285876 L91.6875993,173.330503 C82.8761236,169.131315 74.7253828,163.472585 67.5450615,156.461639 L79.2895965,144.717663 C85.3938478,150.642477 92.3544832,155.367122 99.8808239,158.808869 L100.976794,156.864844 C93.6220657,153.527183 86.8201856,148.925963 80.8607145,143.148725 L91.4967576,132.512123 C96.4816727,137.307874 102.20547,141.067578 108.403633,143.701015 L109.498765,141.760455 C103.478363,139.233787 97.9107495,135.600304 93.0698322,130.949446 L104.816044,119.203793 C108.590339,122.764551 112.984114,125.446117 117.747331,127.152177 L118.857276,125.186351 C114.259802,123.594438 110.019527,121.048596 106.386044,117.634855 L117.041093,106.978688 C120.425375,110.013932 124.669171,111.770973 129.207671,112.019838 L129.207671,127.089849 C125.633386,126.979162 122.153124,126.32637 118.857276,125.187245 L117.747331,127.153071 C121.388304,128.459113 125.242367,129.191679 129.207895,129.308453 L129.207895,145.917943 C122.334463,145.780675 115.674568,144.35739 109.503796,141.76884 L108.408664,143.7094 C114.915953,146.475319 121.944786,147.997916 129.207839,148.138224 L129.207839,163.180285 C119.310231,163.027762 109.751376,160.85234 100.981825,156.873117 L99.8858549,158.817143 C108.989127,162.976698 118.92307,165.246171 129.208062,165.399896 L129.208062,182.008826 C116.014606,181.850199 103.281764,178.859435 91.6931893,173.338776 L90.5906788,175.294149 C102.837752,181.156355 116.338098,184.255436 130.318064,184.255436 C144.982801,184.255436 159.112019,180.828894 171.82865,174.394723 L170.778406,172.357904 C158.919276,178.363772 145.568742,181.835145 131.426667,182.008994 L131.426667,165.399504 C142.639596,165.233907 153.433276,162.54599 163.185544,157.640621 L162.148828,155.630802 C152.878974,160.299324 142.459822,163.007331 131.426891,163.178943 L131.426891,148.136883 C139.839801,147.974773 147.936878,145.956234 155.272042,142.297596 L154.241419,140.297336 C147.340596,143.739138 139.609662,145.749852 131.427058,145.916936 L131.427058,129.307447 C136.784992,129.150565 141.942917,127.861097 146.637377,125.563227 L145.613741,123.574761 C141.302139,125.679163 136.501525,126.927236 131.426388,127.087613 L131.426388,112.019838 C135.964161,111.771006 140.208796,110.013932 143.595202,106.978688 L154.239071,117.623675 C151.690602,120.015681 148.785269,122.026395 145.613741,123.57532 L146.637377,125.563786 C149.962797,123.935259 153.059139,121.807771 155.819468,119.204073 L167.546115,130.931279 C163.631065,134.692493 159.144944,137.853343 154.24086,140.297839 L155.271483,142.298099 C160.301286,139.790605 164.976796,136.518625 169.134059,132.520117 L179.747183,143.132123 C174.577072,148.146218 168.6427,152.365642 162.148828,155.631864 L163.185544,157.641683 C169.780036,154.325822 175.901617,150.005779 181.339543,144.725489 L193.055569,156.441515 C186.519213,162.821353 179.004052,168.193876 170.778965,172.357848 L171.829209,174.394667 C180.44839,170.033369 188.427518,164.303646 195.458028,157.272577 C202.849092,149.88319 208.813035,141.450156 213.24812,132.316139 L213.237723,132.294165 Z" id="path51"></path>
                    <polygon id="polygon59" points="135.581833 70.7913073 135.025648 70.8135305 135.051925 71.4802271 135.612489 71.4535593"></polygon>
                    <rect id="rect61" x="134.2101" y="69.9044727" width="1" height="1"></rect>
                    <polygon id="polygon63" points="132.870979 69.7068141 133.523511 69.8045963 133.60234 69.2445712 132.949808 69.1512336"></polygon>
                    <rect id="rect65" transform="translate(132.035994, 69.189550) rotate(-172.007136) translate(-132.035994, -69.189550) " x="131.708311" y="68.9062775" width="1" height="1"></rect>
                    <rect id="rect67" x="126.965516" y="68.769708" width="1" height="1"></rect>
                    <polygon id="polygon69" points="125.347154 69.8979338 125.995307 69.9912714 126.074136 69.4312462 125.425983 69.3379087"></polygon>
                    <rect id="rect71" transform="translate(125.109210, 70.383122) rotate(-166.116690) translate(-125.109210, -70.383122) " x="124.725039" y="70.1004663" width="1" height="1"></rect>
                    <rect id="rect73" transform="translate(124.312505, 71.119583) rotate(-99.275568) translate(-124.312505, -71.119583) " x="124.025709" y="70.8404915" width="1" height="1"></rect>
                    <polygon id="polygon75" points="50.8577852 128.842803 50.8577852 128.371671 50.3935678 128.371671 50.3935678 129.313936 51.1380674 129.313936 51.1380674 130.540657 51.6986317 130.540657 51.6022847 129.127261"></polygon>
                    <polygon id="polygon77" points="58.2020542 136.576484 57.8298044 137.234291 56.8094021 136.292027 56.0649026 135.256425 55.6926528 134.407498 55.0401208 132.709644 56.4327729 133.367451 56.9013697 134.68751 57.5495222 135.163087"></polygon>
                    <polygon id="polygon79" points="77.0641691 162.510982 76.9722015 161.662055 76.2277019 160.528671 77.3444513 160.719791 78.5487888 161.755393 79.0173855 162.982115 78.3648536 163.359909 77.9926038 162.79544"></polygon>
                    <path d="M127.429976,76.8807544 L126.407737,76.8807544 L126.221613,74.8064269 L126.779107,74.4277397 L126.779107,73.3907996 L123.526525,73.3907996 L123.433681,72.3543066 L123.89965,72.07118 L123.155177,71.788059 L122.597242,72.541867 L122.412868,73.3908163 L121.483144,73.5801543 L121.483144,74.0508469 L120.833253,74.0508469 L120.833253,75.2766723 L118.230561,77.4456939 L113.027414,77.2581279 C112.654294,78.1061828 111.724559,77.1625673 111.724559,77.1625673 C111.540184,76.5971974 110.239973,77.1625673 110.239973,77.1625673 C110.239973,78.2012962 108.474212,76.6918803 108.474212,76.6918803 L105.221183,74.3335263 C103.36302,72.6361307 100.575524,74.8059909 100.483121,75.2766667 C100.575524,76.5971862 98.3459625,75.5597932 98.3459625,75.5597932 C98.3459625,75.5597932 96.4877993,74.9944233 96.2083565,75.7491368 C95.9302665,76.5029448 94.7202496,76.3154012 94.7202496,76.3154012 L94.5341258,76.6923052 L93.6044014,76.88076 L93.4200273,77.4461299 L92.3041567,77.6354735 L95.0912058,77.5408017 C95.8352872,77.4465771 94.8118022,79.1444534 94.348466,79.0502064 L93.0486853,79.144431 L92.5827163,79.6151236 L91.3748906,79.6151236 L90.817833,80.3711675 L89.0533577,80.2764957 C89.0533577,80.2764957 88.0298894,81.1249979 88.1240805,81.4076828 C88.2169188,81.6908038 87.9379567,82.5397643 87.6585475,82.5397643 C87.3795798,82.5397643 86.8220638,83.3882665 87.0082099,83.6709514 C87.1952113,83.9540724 86.4511523,84.897224 86.4511523,84.897224 L86.2659061,85.8412588 L85.7088485,86.0288247 L85.7088485,88.5756168 L84.5929779,89.3303192 L84.5929779,90.4615063 L82.919172,92.253596 L83.1061678,93.7616591 L81.7130905,95.2710638 L81.8974646,96.7800214 L81.0614281,97.0631423 L80.876618,97.7231506 L80.5052481,99.7027839 L81.434134,99.7983445 C81.8974702,99.6090009 81.8055039,101.02417 81.434134,101.211713 C81.0610088,101.401057 80.0388765,101.777531 80.5976503,102.154407 C81.1555856,102.533094 79.1103819,102.437975 79.1103819,101.871727 C79.1103819,101.307252 77.9949585,100.834787 77.7173045,101.02412 C77.4379009,101.211686 76.9728318,100.17517 76.9728318,100.17517 C75.9510964,99.1382301 72.7914196,100.268953 72.7914196,100.268953 L72.3254562,101.777911 C71.3046151,101.967254 70.6542776,103.664639 70.6542776,103.664639 C69.8177939,103.947765 69.1674564,104.984264 69.446452,105.267396 C69.724542,105.550523 68.9804829,105.6443 68.9804829,105.6443 L68.9804829,107.719969 L68.5167052,108.379977 L68.6086714,110.642743 C69.1670427,110.642743 69.0746404,111.681024 69.0746404,111.681024 C68.144916,111.774802 68.3297205,113.001544 68.3297205,113.001544 L66.3791551,113.661161 L66.0077852,114.226531 L63.5921339,114.131859 L62.9417963,114.792762 L62.2897259,114.131859 L57.6436751,114.131859 L57.459301,113.660725 L56.5295765,113.47094 L56.435855,112.434447 L55.0427776,112.52823 L54.7642516,113.094047 L53.2765919,113.18783 C53.3694358,114.131417 51.7897707,115.546631 51.6054133,115.170146 C51.4170983,114.792348 50.3958548,113.753647 50.8613319,113.566942 C51.3264233,113.377157 52.5351378,113.187813 52.5351378,113.187813 L52.5351378,112.528252 L49.095571,112.434469 L48.7250731,113.000733 L47.3293684,113.094069 L47.3293684,114.603474 L46.6799253,114.79237 C46.2143979,115.074161 46.7718971,116.11289 46.7718971,116.11289 C47.4222347,116.77206 46.6799253,117.808944 46.6799253,117.808944 C46.121554,118.375208 47.143267,119.413937 47.143267,119.413937 C47.8877398,119.601056 46.6799253,120.167298 46.6799253,120.167298 C46.8642994,121.109991 47.4226651,121.393123 47.4226651,121.393123 C46.8642938,122.335816 47.7957903,122.806548 47.7957903,122.806548 L47.8877565,124.411485 L48.5380941,124.789284 L48.5380941,125.824435 L48.9094696,126.485338 L50.3962908,126.485338 L50.3034525,124.127878 C49.001883,122.618473 51.4175902,122.24115 51.5121726,122.806017 C51.6058885,123.372281 52.6275959,123.655414 52.6275959,123.655414 C52.8137197,125.070571 54.393804,125.918179 54.857157,124.505201 C55.3222484,123.088702 55.6936407,123.938937 55.9725803,124.598096 C56.251548,125.258998 58.0151009,126.86265 58.0151009,126.86265 L59.4099111,126.86265 L59.5969069,128.183169 C61.1761304,128.088498 61.6394834,128.279172 62.2898209,130.445935 C62.9418914,132.614062 64.7063666,133.180271 64.7063666,133.180271 L66.0079361,133.086046 C66.0079361,131.9562 67.3090584,133.27672 67.3090584,133.842984 C67.3090584,134.406565 69.8175591,136.575978 69.8175591,136.575978 L72.3256127,137.140901 L74.651489,139.029418 L76.415517,138.840516 L77.1599897,138.840516 C77.6233259,137.235579 79.8546366,138.93341 80.0389939,139.499686 C80.2264313,140.06595 81.7127998,141.00909 81.8971571,140.536626 C82.0841529,140.065933 83.1058772,140.349507 83.2924146,141.762451 C83.4776663,143.17895 84.1271095,142.895371 84.1271095,142.895371 L89.4248394,142.801146 L91.2830026,141.196153 L96.0227973,141.103259 C98.4384486,141.009034 96.9516833,137.707574 96.4883247,137.707574 C95.6518411,137.048404 96.7659787,134.313174 96.7659787,134.313174 L89.9825455,127.994826 C88.403322,127.994826 89.7964218,125.730272 89.7964218,125.730272 C91.0042474,124.975123 89.5170181,123.751086 89.5170181,123.751086 C89.7040139,122.617719 88.8666806,121.297646 88.8666806,121.297646 C87.195502,120.166012 87.6588549,117.996152 87.6588549,117.996152 L87.6588549,116.486747 C86.2657775,115.168017 88.2167846,114.977343 88.2167846,114.977343 C88.8662278,113.847944 87.7512572,112.998604 87.7512572,112.998604 L87.6588549,111.772331 L86.1715865,111.582987 L85.9872124,107.150362 L82.642228,102.341699 C81.9901575,102.151466 82.4552266,101.021179 82.4552266,101.021179 C83.2917102,100.549156 82.2682252,99.4188691 82.2682252,99.4188691 L82.1758229,97.3436472 L84.1263884,97.153862 L84.5919158,96.4005013 L85.5208017,96.4005013 L85.4283995,93.9479562 C85.8921772,92.7221308 87.0071758,93.3816918 87.0071758,93.3816918 L88.3082981,93.4763636 L89.0523795,92.061653 L89.2367536,90.9295715 L88.2159126,90.8362358 C87.1004892,90.1753332 87.6579773,87.7240737 87.6579773,87.7240737 C89.4237382,85.0825875 91.4667059,86.5916009 91.4667059,86.5916009 L92.7691139,86.4982596 C94.7196794,87.8178847 92.953488,90.2699826 92.953488,90.2699826 C92.5821181,90.8362469 92.7691139,92.6278894 92.7691139,92.6278894 L93.2328917,95.6444629 L92.0250661,96.6831918 C91.0033307,97.2494562 91.0033307,98.5690254 92.118782,98.8521576 C92.8615218,98.9454934 92.5825597,100.738047 91.4671028,99.5117745 C89.7959243,99.5117745 92.3981689,101.020732 91.6541042,100.642067 C93.3274629,101.491464 92.9538849,99.8882592 92.9538849,99.8882592 L95.1860733,98.0961695 C96.0225569,97.4365526 97.5097695,99.5117745 97.5097695,99.7949066 C97.5097695,100.077586 101.226096,99.8882424 101.226096,99.8882424 C102.247831,100.548251 102.619173,102.246596 102.619173,102.246596 C103.642642,100.925183 105.778906,102.151041 104.199682,102.906213 C105.685162,103.849354 105.685162,104.697856 105.685162,104.697856 C106.894721,104.320952 106.894721,105.263673 106.894721,105.546805 C106.894721,105.829926 107.26609,104.132542 107.26609,104.132542 C105.872119,103.094707 109.124254,102.717831 108.195815,104.604118 L107.637444,105.453514 L108.567168,106.207322 L108.659134,108.377182 C110.704282,108.187844 110.146403,105.641058 110.146403,105.641058 L111.07568,105.453492 C111.07568,104.604095 111.725123,105.075699 111.725123,105.075699 C111.07568,101.868452 113.212783,101.303976 113.212783,101.303976 C114.420609,101.020855 114.513011,98.4731573 114.513011,98.4731573 C113.678316,98.0962534 114.141205,96.7766562 115.070946,97.909129 C115.999385,99.0389745 114.513011,95.6441275 114.513011,95.6441275 L113.770271,94.9845106 L112.748536,94.890286 L112.654814,93.8528987 L110.983635,93.8528987 L110.704232,95.1738654 L110.053894,95.3623202 L109.866893,94.9845218 L109.588803,96.0219091 L107.91673,96.0219091 L107.824322,94.8902748 L108.846057,94.6075954 L109.217869,94.0417783 L109.495959,92.5323736 L110.704679,92.5323736 L112.283903,92.0616866 C112.375869,90.4580349 113.21318,90.8358612 113.21318,90.8358612 L113.770243,91.3069954 L114.606727,91.9670036 L114.700007,92.5319264 L114.141635,92.8146057 L114.049669,93.5702025 L114.328637,94.6071426 L115.071377,94.6071426 C115.349908,93.0981851 117.30267,93.0981851 117.859711,94.0413255 L118.417647,92.7212532 C117.116972,92.061245 118.393554,91.0229632 118.764929,91.4949806 C119.136305,91.9670036 119.996848,90.2691553 119.996848,90.2691553 C119.996848,90.2691553 120.647185,91.1181046 119.996848,89.9860287 C119.34651,88.8539528 120.460626,88.2886331 120.460626,88.2886331 C120.275815,87.157446 121.669346,87.3454928 121.669346,87.3454928 L121.763067,85.8374296 L120.460659,85.741869 C120.183883,87.0623885 119.068029,85.9312126 119.625517,85.6485332 C120.183888,85.364965 120.739655,84.7991367 120.739655,84.7991367 L120.739655,83.8559963 L121.29759,83.6675416 L121.389992,82.7244012 L122.784802,82.7244012 L123.992628,82.1590312 L124.272032,81.6870082 L125.571812,81.5932308 L127.429976,79.8949409 L127.245607,79.1411329 C126.130184,79.1411329 127.245607,78.2921836 127.245607,78.2921836 L127.429104,76.8805475 L127.429976,76.8807544 Z" id="path81"></path>
                    <path d="M89.9822604,95.5512669 L88.3093266,95.3628121 L88.4030481,96.022429 L88.8668203,96.022429 C89.6095601,97.3433957 88.9601058,100.549302 88.9601058,100.549302 C88.9601058,100.549302 87.8459681,100.642637 87.6589835,100.078167 C87.4746094,99.5123502 87.0086459,101.30444 87.3800158,101.587572 C87.7513858,101.868915 89.0533745,101.587572 89.1457768,102.625407 C89.237743,103.6619 89.9822604,101.964504 89.9822604,101.964504 L89.9822604,95.5511271 L89.9822604,95.5512669 Z" id="path83"></path>
                    <polygon id="polygon85" points="90.5396108 105.263967 89.8870788 104.983954 89.9790464 103.570557 90.5396108 103.472775 90.6315784 102.810523 89.2345469 103.757232 88.3061122 103.192763 88.3061122 105.455086 89.7951113 107.432953 90.3512962 106.112894"></polygon>
                    <polygon id="polygon87" points="90.723546 109.508602 90.723546 108.566337 90.0753934 108.659675 89.9790464 109.415264"></polygon>
                    <polygon id="polygon89" points="89.8870788 114.037694 89.8870788 113.375442 89.0987852 113.46878 89.0987852 114.131032"></polygon>
                    <path d="M90.9828434,111.136114 C91.2005002,111.136114 91.3756732,110.957883 91.3756732,110.737426 C91.3756732,110.515196 91.2005002,110.336518 90.9828434,110.336518 C90.7651866,110.336518 90.5886999,110.514749 90.5886999,110.737426 C90.5886999,110.957883 90.7651866,111.136114 90.9828434,111.136114 Z" id="path91"></path>
                    <ellipse id="circle93" cx="91.6300793" cy="112.717635" rx="1" ry="1"></ellipse>
                    <ellipse id="circle95" cx="91.6519851" cy="101.943822" rx="1" ry="1"></ellipse>
                    <polygon id="polygon97" points="121.576483 90.5521948 120.831983 90.7433145 119.159049 92.347831 119.067082 93.0989759 118.602864 93.7612278 118.046679 95.1746246 116.093463 95.2679622 115.721213 96.9658162 115.997116 98.379213 117.67005 99.041465 117.858365 98.0992004 118.41455 97.8147432 118.510897 96.8724787 118.878767 96.2102267 119.439331 95.5524194 119.623266 94.7968299 120.551701 94.2323601 121.66845 94.0412404 122.132668 93.4767706 122.320982 92.347831 122.386674 91.498904 122.7852 90.9299896 123.89757 90.4588573 123.89757 88.6676657 123.341385 88.6676657 123.249417 88.0054138 122.224635 87.9120762 122.0407 88.3832085 121.576483 88.3832085 121.480136 89.138798 122.0407 89.138798 122.132668 89.7032678 121.760418 90.0810625"></polygon>
                    <path d="M125.84751,94.4220921 L125.84751,93.1015726 L125.660509,91.8753001 L124.26827,91.2157391 L123.246534,92.1588795 L123.059533,93.479399 L123.059533,94.3274539 L122.130647,94.5167975 L121.943651,97.0626952 L121.201359,97.3462633 L121.294202,98.2894037 L120.272467,98.5720831 L119.250732,98.8552097 L119.064608,100.081035 L118.322315,100.552169 L117.948318,101.684195 L117.48454,104.418978 C117.48454,104.418978 118.321862,106.022182 118.785663,105.26748 C119.250754,104.513672 119.993488,104.418978 119.993488,104.418978 L120.272456,103.758522 L122.781404,103.852747 C122.967528,102.814465 124.175376,103.193186 124.175376,103.664292 C124.175376,104.135873 125.1051,103.758075 125.1051,103.758075 L125.75499,102.721135 L126.776279,102.721135 L126.869122,101.589948 L127.33465,101.306821 L127.33465,99.6085313 C128.821918,99.1374027 128.634431,97.7226978 128.634431,97.7226978 L129.008433,97.2520052 L128.821868,96.5924442 C128.077395,96.3084288 128.448307,95.647515 128.91384,95.8364002 C129.379803,96.0248494 128.263502,94.9874509 128.263502,94.9874509 C127.706445,95.4599211 127.242661,94.422081 127.242661,94.422081 L125.847404,94.422081 L125.84751,94.4220921 Z" id="path99"></path>
                    <path d="M127.334443,105.831229 C127.242041,106.962416 125.84723,107.340186 125.84723,107.340186 L124.825495,107.057507 L124.268437,106.585931 L124.175158,105.264964 L125.010747,105.171623 L125.196871,105.737887 L127.334477,105.831229 L127.334443,105.831229 Z" id="path101"></path>
                    <path d="M132.354239,99.7996469 C132.555255,100.621932 132.538614,98.4777858 132.910425,98.5733744 C133.281795,98.6671574 133.004141,97.2537493 133.004141,97.2537493 L131.33123,98.4777858 C132.167266,98.5733464 132.259668,99.422715 132.354251,99.7996469 L132.354239,99.7996469 Z" id="path103"></path>
                    <path d="M137.279006,94.8916499 C137.650376,95.7410465 137.55841,96.967319 138.950185,97.9104594 C139.420973,98.228255 138.671659,98.8535998 138.206104,98.5700763 C137.742326,98.2873969 136.442523,96.2117223 136.442523,96.2117223 L136.442523,94.9858969 C136.721049,94.2320889 137.117792,94.5263228 137.279006,94.8916723 L137.279006,94.8916499 Z" id="path105"></path>
                    <polygon id="polygon107" points="137.929196 123.086989 137.281044 123.562566 137.556947 123.842579 137.832849 124.313711 138.485381 123.278109"></polygon>
                    <line x1="134.953577" y1="122.053327" x2="134.953577" y2="123.188103" id="line109"></line>
                    <polygon id="polygon111" points="148.391605 120.686882 149.136104 120.215749 148.838304 119.740172 148.098184 120.20686"></polygon>
                    <path d="M175.285238,140.349317 L176.12256,140.725338 L176.214527,142.328542 C177.330397,143.460176 180.954321,142.517439 180.954321,142.234318 C180.954321,141.950749 180.767326,138.745279 180.767326,138.745279 L180.301793,138.273262 L180.209826,135.91407 C180.581202,134.688244 178.443618,132.896155 178.258366,133.275267 C178.072243,133.651282 176.864395,133.367714 176.864395,133.745954 C176.864395,134.121974 176.122102,136.008719 176.493025,136.669622 C176.864395,137.330077 176.213621,137.330077 176.121655,137.989694 C176.029247,138.649702 175.099081,139.783125 175.285171,140.349334 L175.285238,140.349317 Z" id="path113"></path>
                    <path d="M173.239308,136.576085 C173.063257,137.290763 172.404613,137.707719 172.033215,137.424139 C171.659218,137.140571 172.495243,137.894826 172.682658,138.273927 C172.867904,138.649948 173.424951,138.649948 173.611936,138.273927 C173.796304,137.894357 173.704338,137.048102 173.891339,136.670723 C174.075713,136.292924 173.332968,136.1987 173.239269,136.576051 L173.239308,136.576085 Z" id="path115"></path>
                    <rect id="rect117" x="168.918264" y="119.275121" width="1" height="1.79253695"></rect>
                    <path d="M178.538603,101.118881 C178.133073,100.56952 180.396766,99.6099232 180.768164,100.741971 C181.139534,101.872264 180.768164,101.685112 180.396794,101.590921 C180.024105,101.495802 179.096566,101.872711 178.538631,101.118898 L178.538603,101.118881 Z" id="path119"></path>
                    <polygon id="polygon123" points="180.536467 88.4854353 180.44012 89.0410158 181.460523 89.2276909 181.561249 88.6721104"></polygon>
                    <polygon id="polygon125" points="178.211001 89.3032498 177.935098 89.4588124 177.243152 89.8499411 176.638793 89.4677017 176.345373 89.9432786 177.089872 90.4144109 177.230013 90.5033037 177.370155 90.4233001 177.930719 90.1077304 178.000789 90.2810715 178.51756 90.0721733 178.329245 89.601041"></polygon>
                    <path d="M181.41744,67.1653799 L180.022629,67.1653799 C180.022629,67.1653799 180.487721,67.3538347 179.187934,66.1275454 C177.885079,64.90172 177.050328,66.4106719 177.050328,66.4106719 L175.563507,66.5991211 L175.563507,68.1080787 L174.819034,68.3907581 L174.913192,69.3343456 L175.934927,69.2405626 C175.934927,69.2405626 175.934927,70.3717497 176.213889,69.9005708 C176.493299,69.4285479 178.816581,69.9939066 178.629988,71.1263962 C178.554227,71.5913031 180.954131,72.8228974 180.675136,74.3318549 C181.882961,74.5211985 181.604413,75.7474598 181.604413,75.7474598 L183.183189,75.935909 L183.648717,74.9927687 L184.112494,75.0874405 L184.112494,74.5211761 L183.089026,74.2384967 L182.904652,71.2201345 L182.254315,70.7485587 L182.439561,69.9938563 L181.696821,69.7107353 L182.068627,68.48491 L181.417395,67.1652849 L181.41744,67.1653799 Z" id="path127"></path>
                    <path d="M185.50371,76.7857248 L184.760971,76.6923834 L183.085879,76.9750628 L182.158782,78.7667053 C182.158782,78.7667053 182.622554,79.0498263 182.993477,79.7098457 C183.364852,80.3707483 183.551412,84.2362711 182.436419,84.8972296 C181.322281,85.557685 182.530141,85.1790202 182.530141,85.1790202 L182.343139,87.254242 C182.622543,88.1973824 183.085879,87.7267122 183.364875,87.254242 C183.646028,86.7839967 183.92499,86.6893193 184.296388,86.2177491 C184.667758,85.7452845 185.224827,84.8972296 185.318123,84.236327 C185.410095,83.5767101 185.875181,82.5398258 185.596219,82.2566937 C185.318123,81.9735727 185.875623,80.6539364 185.875623,80.6539364 C185.875623,80.6539364 186.246992,79.8983396 185.875623,79.1445316 C185.504247,78.3893821 185.968025,77.54088 186.246992,77.1631095 L185.503805,76.7857583 L185.50371,76.7857248 Z" id="path129"></path>
                    <rect id="rect133" transform="translate(186.952000, 80.291773) rotate(-82.823355) translate(-186.952000, -80.291773) " x="186.571632" y="80.0123141" width="1" height="1"></rect>
                    <rect id="rect135" transform="translate(186.484314, 82.830008) rotate(-153.599380) translate(-186.484314, -82.830008) " x="186.205397" y="82.514707" width="1" height="1"></rect>
                    <path d="M185.783209,75.7515797 L185.410084,74.9021831 C185.410084,74.9021831 185.410084,74.1488224 185.596208,73.7701016 C185.783209,73.3931977 185.224838,73.0167409 184.946765,72.9220467 C184.667797,72.8273749 184.761513,72.0735446 184.667797,71.6957742 C184.575389,71.3188646 183.925504,71.0361573 183.925504,71.0361573 C183.925504,71.0361573 183.738067,69.6214467 183.738067,69.3387617 C183.738067,69.0556407 182.90203,68.6787535 183.181009,68.3951741 C183.460413,68.1124947 183.646537,67.7356131 183.925482,67.5462248 C184.20445,67.35777 183.646078,66.0372673 184.109856,66.3199523 C184.575383,66.6035205 184.575383,67.0746546 184.761535,67.4520338 C184.946787,67.8289377 184.667819,69.1498765 185.133347,69.4330087 C185.596688,69.7152409 185.039189,70.6579396 185.783237,70.6579396 C186.525977,70.6579396 186.062641,72.4504765 186.062641,72.4504765 C186.062641,72.4504765 185.875639,73.7701016 186.339417,73.8651871 C186.80495,73.9594117 186.526418,76.2226467 186.526418,76.2226467 L185.783231,75.7515126 L185.783209,75.7515797 Z" id="path137"></path>
                    <path d="M179.746037,60.4685913 C180.023691,60.8454953 180.581627,61.1281523 180.581627,61.5064258 C180.581627,61.8842242 180.396381,62.1660427 180.954752,62.260681 C181.510932,62.354464 181.883638,62.1660092 182.068889,62.637585 C182.255013,63.1087191 182.255013,63.8634103 182.162611,64.2407895 C182.068889,64.6185822 182.255013,65.1839298 182.718791,65.1839298 C183.184318,65.1839298 183.276726,65.2786016 183.276726,65.5617282 C183.276726,65.8439604 183.834656,64.5234465 183.834656,64.5234465 C183.368693,64.1465369 182.997334,63.2971739 182.997334,63.2971739 C182.997334,63.2971739 182.533562,61.9771016 182.533562,61.7886636 C182.533562,61.6002088 181.883671,61.4108652 181.605123,61.3170878 C181.325719,61.222416 180.860203,60.3743946 180.860203,60.3743946 L179.746037,60.4686192 L179.746037,60.4685913 Z" id="path139"></path>
                    <path d="M180.673973,59.6245052 C180.394569,59.2462653 180.115602,58.9636026 179.744249,58.7760031 C179.373756,58.5866595 179.094805,58.3982047 178.721675,58.3982047 C178.350305,58.3982047 177.979382,58.020412 178.163739,57.5497026 C178.350741,57.0776796 177.884336,56.8892472 177.884336,56.5114209 C177.884336,56.1345113 178.163739,56.1345113 178.628808,56.4176379 C179.094336,56.7007589 179.000184,56.7945419 179.373728,57.2670344 C179.744221,57.738163 179.929472,58.2097276 180.300434,58.1150893 C180.673995,58.0204175 180.952505,58.9635915 181.323903,58.6809065 C181.695272,58.3982215 181.603306,59.3409147 181.603306,59.3409147 L180.674029,59.6245052 L180.673973,59.6245052 Z" id="path141"></path>
                    <path d="M169.801474,70.2789953 C170.313862,70.7999082 167.014425,70.6554577 167.014425,70.2789953 C167.014425,69.9020913 167.293828,68.5824942 168.128563,68.8633903 C168.965046,69.1474057 169.057001,67.1668892 169.057001,67.1668892 C169.057001,67.1668892 168.314709,67.2602306 168.965035,66.8837682 C169.615373,66.5068586 168.965035,65.9406278 168.685626,65.6579428 C168.407536,65.3743747 168.128568,64.9032405 168.128568,64.9032405 L169.430585,64.9032405 C169.98852,64.5254477 170.172877,62.7342747 170.172877,62.7342747 C171.287015,63.1111787 171.84495,62.356482 171.84495,62.356482 C171.84495,62.356482 172.033701,62.9222991 172.404619,63.3947637 C172.775994,63.8654507 171.473553,64.0543247 171.938655,64.3379041 C172.404619,64.6210307 172.588993,65.4690912 172.404619,65.7513289 C172.217623,66.0344499 171.194166,65.8459952 171.194166,65.4690912 C171.194166,65.0912984 170.82279,65.9406669 171.194166,66.4122315 C171.565536,66.8838073 170.730388,67.5434186 170.543828,67.5434186 C170.357704,67.5434186 169.151645,67.7327622 170.172458,68.298121 C171.194194,68.863491 172.31135,68.5821364 172.31135,68.5821364 C172.31135,68.5821364 173.146939,68.4865758 173.425488,68.9590404 C173.704897,69.4301746 173.333085,69.5248575 172.86843,69.5248575 C172.404652,69.5248575 170.172945,69.3355139 170.172945,69.3355139 C170.172945,69.3355139 169.523054,69.9959693 169.801575,70.2791015 L169.801474,70.2789953 Z" id="path143"></path>
                    <path d="M163.853742,71.1286713 C164.319711,71.0344411 165.432518,70.9393277 165.619503,71.2224487 C165.806499,71.5051337 164.969165,71.8820656 164.969165,71.8820656 L163.853742,72.0714092 C163.482372,71.5993862 163.389964,71.2229071 163.853742,71.128716 L163.853742,71.1286713 Z" id="path145"></path>
                    <path d="M175.844236,63.2076784 C176.586975,62.8307745 178.166199,62.8307745 178.073797,62.2645381 C177.98183,61.6987209 179.002683,61.5102829 179.002683,61.5102829 L179.28165,62.64147 L180.118134,63.2072871 L180.211414,64.2446745 C180.211414,64.2446745 180.489504,64.0562197 179.468674,64.3393463 C178.445206,64.6224673 179.097304,65.0931543 179.097304,65.0931543 L176.86601,65.1873788 L176.587043,64.2442385 L175.844303,63.2077455 L175.844236,63.2076784 Z" id="path147"></path>
                    <path d="M172.216343,58.1152123 C172.781265,58.1152123 172.031969,60.2841781 173.516571,60.09574 C175.003839,59.906402 173.611164,60.7557482 174.725291,60.849548 C175.840714,60.9451086 175.561774,60.0010459 175.933116,59.3414849 C176.306241,58.6814767 176.120118,58.3036503 175.469338,58.1152123 C174.817268,57.9267575 174.817268,57.9267575 174.632855,57.1711775 C174.447603,56.4173696 173.703578,56.2280372 173.703578,56.2280372 L173.424168,55.0972973 L172.216343,55.8511052 L171.008517,57.4543097 C171.008517,58.6814767 171.658407,58.1152123 172.216343,58.1152123 Z" id="path149"></path>
                    <rect id="rect153" transform="translate(175.065574, 65.928287) rotate(-63.601966) translate(-175.065574, -65.928287) " x="174.750021" y="65.6480337" width="1" height="1"></rect>
                    <rect id="rect155" x="173.703276" y="65.1865292" width="1" height="1"></rect>
                    <rect id="rect157" transform="translate(173.941932, 53.076251) rotate(83.695092) translate(-173.941932, -53.076251) " x="173.515303" y="52.7974459" width="1" height="1"></rect>
                    <rect id="rect159" x="172.590876" y="61.4132969" width="1" height="1"></rect>
                    <rect id="rect161" transform="translate(171.564735, 61.075354) rotate(-95.549054) translate(-171.564735, -61.075354) " x="171.28163" y="60.6084249" width="1" height="1"></rect>
                    <rect id="rect163" transform="translate(163.345460, 70.032043) rotate(-156.958033) translate(-163.345460, -70.032043) " x="163.066931" y="69.6737241" width="1" height="1"></rect>
                    <rect id="rect165" transform="translate(160.982815, 68.429181) rotate(-95.560295) translate(-160.982815, -68.429181) " x="160.700381" y="67.9615811" width="1" height="1"></rect>
                    <polygon id="polygon169" points="144.419481 68.5823192 142.378676 68.6756567 142.404952 69.2401265 144.445757 69.146789"></polygon>
                    <rect id="rect171" transform="translate(141.190159, 68.915982) rotate(-102.331190) translate(-141.190159, -68.915982) " x="140.756238" y="68.636606" width="1" height="1"></rect>
                    <rect id="rect173" transform="translate(140.670572, 69.670323) rotate(-108.225232) translate(-140.670572, -69.670323) " x="140.388082" y="69.5233969" width="1" height="1"></rect>
                    <path d="M145.267079,68.3951741 L145.174671,69.0551823 L146.195512,69.1498541 C146.195512,69.1498541 146.65929,69.5276525 146.65929,69.809471 C146.65929,70.092592 147.31136,70.3752882 147.682758,70.3752882 C148.054134,70.3752882 149.075836,69.6205858 149.075836,69.6205858 C149.075836,69.6205858 149.541369,68.3000663 149.169993,68.3943133 C148.796868,68.4880963 148.054123,69.0543215 147.962167,68.4880963 C147.86801,67.9222791 146.754342,68.2049697 146.754342,68.2049697 L145.267073,68.3952021 L145.267079,68.3951741 Z" id="path175"></path>
                    <path d="M149.912347,67.355439 C149.912347,67.6376768 149.727973,68.0150559 150.283717,68.1101414 C150.843832,68.2034772 151.865568,67.7332374 151.957523,68.2985962 C152.05168,68.8639661 152.05168,69.2426309 152.794007,69.5257631 C153.536299,69.8080009 154.002727,69.9026671 154.559768,69.9026671 C155.115948,69.9026671 156.325976,69.7128819 156.325976,69.7128819 C156.325976,69.7128819 157.640682,69.9186712 157.904752,70.1853521 C158.926487,71.2222922 159.576825,71.5049772 159.855317,71.0338542 C160.134285,70.5618312 159.762915,69.5253439 159.670507,69.1480206 C159.576791,68.7697806 158.275697,66.9781605 157.811003,67.3554837 C157.347225,67.7332821 157.254381,67.3554837 156.417478,67.6377215 C155.580994,67.9208425 153.815233,67.7332821 153.723278,67.3554837 C153.63087,66.9776909 152.329754,66.790561 152.329754,66.4123433 C152.329754,66.034545 151.401315,65.5638412 151.49327,66.1292168 C151.585678,66.6945867 150.84338,66.9777189 150.654606,66.7901194 C150.470232,66.601223 149.912314,67.3554893 149.912314,67.3554893 L149.912347,67.355439 Z" id="path177"></path>
                    <path d="M171.288407,55.2810956 L171.940086,53.2076625 C171.011647,53.0183189 171.196061,51.9818372 171.196061,51.9818372 C171.103653,51.1324965 169.802983,50.1897475 169.337897,50.4728796 C168.87412,50.7546702 169.058488,48.4914575 169.058488,48.4914575 C169.058488,48.4914575 169.89581,47.9265348 170.267208,48.2092197 C170.63902,48.4914575 167.10837,43.4939091 166.364289,43.9654793 C165.621549,44.4370551 163.949923,43.4939036 164.042325,42.6445126 C164.134727,41.7964577 160.696894,38.9665335 160.696894,38.9665335 C160.696894,38.9665335 159.58147,38.2131727 159.396218,38.7789731 C159.210095,39.344343 158.838725,39.7221135 159.396218,40.003904 C159.95284,40.2874722 159.859996,39.5327699 160.509909,40.1923588 C161.160247,40.852367 162.369805,41.7017635 161.904719,42.2675807 C161.439633,42.8342922 160.881698,43.0227303 160.881698,43.0227303 L161.533377,43.7774326 L162.555113,43.7774326 L162.741236,45.3797427 C162.741236,45.3797427 163.855374,45.9460071 164.134761,46.6060153 C164.413729,47.2656322 164.413729,47.6434026 164.134761,48.021173 C163.855357,48.398077 163.300066,49.0581132 163.392021,49.7176742 C163.484429,50.3776824 164.228505,50.6608146 164.228505,50.6608146 L164.970797,50.7554864 L165.529169,51.0390545 L165.529169,52.2657743 C166.271461,52.0764307 167.479287,53.1129348 167.387332,53.7738374 C167.29493,54.4338456 167.571706,54.0565168 168.501022,54.7169778 C169.431641,55.376986 169.153093,55.4716802 169.803039,55.9432504 C170.453824,56.4134957 171.011759,56.1308163 171.288519,55.2810062 L171.288407,55.2810956 Z" id="path179"></path>
                    <path d="M155.955109,42.4576957 C155.862707,42.0798973 155.675705,40.7589586 156.234077,40.8531496 C156.791134,40.9487102 156.4202,40.8531496 157.07056,41.1367234 C157.720898,41.4202916 157.8133,40.6655892 157.8133,40.6655892 L158.836321,40.6655892 L160.136549,41.7020822 L159.950425,42.5514228 L159.021148,42.6447642 C158.55737,41.8914034 157.627623,42.1740716 157.813322,42.8345494 C157.999446,43.4941663 157.349545,44.7204388 156.978627,44.8141827 C156.606816,44.9088489 155.396777,44.9088489 155.491359,44.3434901 C155.583767,43.777673 155.955137,42.4576566 155.955137,42.4576566 L155.955109,42.4576957 Z" id="path181"></path>
                    <path d="M155.211642,39.9086788 L155.211642,39.1548597 C155.211642,39.1548597 155.117049,38.4006045 154.653713,38.4006045 C154.190371,38.4006045 153.353485,37.8352346 153.537842,37.4574641 C153.72528,37.0796713 151.959066,36.7027618 151.959066,36.7027618 C151.959066,36.7027618 150.380289,35.1938042 150.93733,35.3831367 C151.49526,35.5715859 151.216734,34.7222341 151.216734,34.7222341 C151.216734,34.7222341 150.100863,34.9106833 149.821924,34.8169003 C149.54252,34.7222341 149.634928,33.8737599 149.634928,33.8737599 C149.634928,33.8737599 148.521685,33.5906333 148.521685,33.8737599 C148.521685,34.1568809 148.89306,34.1568809 149.077429,34.7218148 C149.26443,35.2871848 149.171586,36.2312195 150.008942,36.4192104 C150.845426,36.6085539 151.029783,36.7961143 151.124365,37.1739127 C151.216773,37.5517055 152.238503,37.6454885 152.238503,37.6454885 L152.982529,38.0223981 L155.211642,39.9086788 L155.211642,39.9086788 Z" id="path183"></path>
                    <polygon id="polygon185" points="145.177118 30.2917105 144.901216 29.5361211 144.156716 29.349446 144.156716 30.198373"></polygon>
                    <path d="M144.898141,26.3306213 C143.926771,25.5932478 146.197921,26.8968856 146.197921,26.8968856 C146.940661,26.8968856 147.405747,27.4627028 147.405747,27.7462822 C147.405747,28.0289615 148.427874,27.9347369 148.427874,27.9347369 L148.522467,27.2738343 L147.777547,26.330694 L147.128104,25.8604486 C147.128104,25.8604486 146.106369,25.7657768 146.106369,25.4826558 C146.105927,25.200418 145.269438,26.6142901 144.898096,26.3307107 L144.898141,26.3306213 Z" id="path187"></path>
                    <path d="M161.992281,26.8952086 C161.720759,27.7205683 161.620911,28.8761836 161.155797,28.8761836 C160.692019,28.8761836 160.876829,30.1033505 160.876829,30.1033505 C160.876829,30.1033505 162.086835,30.1033505 162.458233,30.1966919 C162.828725,30.2900277 162.828725,31.2331848 162.828725,31.2331848 C164.223535,31.1398434 164.781471,33.0257217 164.594486,33.4972919 C164.408362,33.9684261 165.152421,33.9684261 165.152421,33.9684261 C165.152421,33.9684261 165.152421,35.4778308 164.96542,35.8543156 C164.781046,36.2321083 166.17414,36.5152182 166.545482,37.0805881 C166.916852,37.6468525 166.358481,39.532686 166.080827,39.626933 C165.802295,39.7216048 166.823119,40.0038425 166.731164,40.4754351 C166.637007,40.9478997 167.010132,40.4754351 167.10254,41.2305847 C167.194942,41.9843926 167.381943,43.5875971 167.381943,43.5875971 L168.681724,43.6827105 C168.86872,42.4568852 171.264236,42.4097617 171.655758,42.550629 C173.235428,43.1164462 174.444987,45.5685441 174.444987,46.133914 C174.444987,46.699284 173.421519,46.7948166 173.421519,46.7948166 L173.608514,49.5287051 C175.187291,50.0007281 176.488413,52.2648296 176.303161,52.6417615 C176.117038,53.0186655 177.416852,52.9253297 177.416852,52.9253297 C177.603848,51.2265926 179.18306,51.7928569 179.275015,52.3590654 C179.37005,52.9253297 179.646827,54.1511551 179.646827,54.1511551 L180.111918,54.9987628 L180.762255,55.6592182 L181.783991,55.5649936 L182.063395,56.1312579 L183.27122,56.3206015 C183.27122,56.3206015 184.294688,57.4508942 184.386644,57.7348649 C184.480801,58.0171027 185.873912,57.9233197 186.244807,58.0171027 C186.616182,58.1117689 187.174531,58.3948955 187.266542,58.866052 C187.3607,59.338075 187.918613,60.0923246 187.918613,60.0923246 C187.918613,60.0923246 189.03275,60.3758928 189.126438,60.7523328 C189.218846,61.1287951 189.684374,61.9781581 189.684374,61.9781581 L190.611471,62.7328605 L190.705192,63.5822011 L191.726928,63.6764313 L192.006331,64.806724 L193.67751,64.7133882 L194.608576,64.05338 C195.816401,63.393819 196.652885,62.5444225 196.746182,62.166652 C196.838148,61.7897481 197.024272,60.3759039 197.954007,60.6585889 C198.882446,60.9417155 198.232975,58.583367 198.232975,58.583367 C198.232975,58.583367 196.9323,57.6402267 197.024255,57.1677621 C197.117535,56.6970695 195.724474,55.7543372 195.816429,55.3765668 C195.908837,54.9987684 194.608604,54.2453797 194.701006,53.8680564 C194.792972,53.4902636 194.050669,52.4524515 194.050669,52.4524515 L192.655858,51.1328264 L192.469734,50.2834298 L191.355597,50.190094 L189.126036,47.454864 L189.218438,46.6997144 L188.5681,46.6059314 L188.5681,45.5689913 L187.918657,45.1911985 L186.895189,45.0969739 L184.851774,42.8342084 L184.66565,41.7963739 L183.643915,41.7963739 L183.829167,39.8153989 C184.480399,38.9664496 184.107693,37.363301 184.107693,37.363301 C184.107693,37.363301 182.805676,38.0233092 182.157127,37.7402106 C181.505448,37.4584144 182.434781,36.7970702 182.434781,36.7970702 L182.434781,36.0432623 L181.87816,35.4774451 C181.87816,35.4774451 180.297203,35.6667887 180.205248,35.3841093 C180.111968,35.1009827 179.833878,33.8747046 179.833878,33.8747046 L179.740598,32.2710529 L179.091155,31.9892623 L178.996562,31.4225508 L177.975721,31.5163338 L177.975721,30.3851467 L177.417349,30.1966975 L176.860292,29.9135709 L176.767448,28.7814894 L174.723138,28.6881536 L174.072801,27.7450132 L173.330061,26.6129876 L171.006812,26.4245328 L170.448877,25.8596101 L169.519991,25.6702665 L168.869653,25.3871455 L168.590686,25.8596101 L166.824478,25.9529515 L166.732511,26.5187686 C165.803625,26.99035 162.086852,26.6125516 161.992269,26.895231 L161.992281,26.8952086 Z" id="path189"></path>
                    <path d="M171.752375,24.4468001 C171.605224,23.7023274 173.612271,23.0320895 174.076071,23.5974036 C174.541598,24.1632207 175.841832,24.2592006 176.027978,27.0882304 C176.093671,28.1011896 174.355067,26.0508431 174.355067,26.0508431 L172.960256,25.5792673 C172.217517,25.3899237 171.844833,24.9196504 171.752431,24.4467386 L171.752375,24.4468001 Z" id="path191"></path>
                    <rect id="rect193" transform="translate(144.429758, 25.059616) rotate(-156.187469) translate(-144.429758, -25.059616) " x="144.150973" y="24.5960396" width="1" height="1"></rect>
                    <path d="M139.693875,16.3357481 L138.483422,15.1094756 L138.483422,14.0720882 L138.112052,13.6938483 L137.740677,12.3742231 L136.532851,11.9973136 L135.325025,12.4680005 L134.023903,13.3169499 L132.630826,13.5067351 L131.886353,14.35479 L134.860387,14.6365806 L135.417008,15.5810625 L137.556347,15.7695173 L138.94853,17.1837807 C140.158983,17.5615735 140.436637,16.9953259 139.693897,16.3357258 L139.693875,16.3357481 Z" id="path195"></path>
                    <path d="M139.509406,11.7128398 C139.304891,10.8839026 138.114596,12.7497799 139.325037,13.1262088 C140.532863,13.5053376 141.738956,13.1262088 141.738956,13.1262088 L142.018359,12.5608388 L146.663125,12.6555106 C147.037127,12.2777178 147.22106,11.7123702 147.22106,11.7123702 C147.22106,11.7123702 148.33693,11.3345719 148.800283,11.5230267 C149.265811,11.7123702 148.894877,10.2034015 148.428913,10.3918396 C147.965136,10.5802943 147.036283,10.4860642 147.036283,10.4860642 L145.362925,10.4860642 C145.270522,9.82650314 143.783701,10.1082714 143.690852,10.4860642 C143.596694,10.8629737 143.041409,10.9571983 143.041409,10.9571983 L140.903803,11.1465419 C140.717243,11.7128063 139.603575,12.0896823 139.509384,11.7128063 L139.509406,11.7128398 Z" id="path197"></path>
                    <path d="M130.308309,27.6274952 C131.73733,28.0808477 132.258875,27.745276 132.353457,27.368372 C132.445865,26.9905792 132.537831,26.8959074 133.096197,26.8025548 C133.653254,26.707883 133.002917,25.5762823 132.445859,25.6704733 C131.887488,25.7647035 131.329989,25.4820241 131.238034,25.0104651 C131.143004,24.5393365 130.214565,23.3130696 130.122163,24.2566572 C130.029319,25.1997975 129.471825,25.1997975 129.564228,25.8598616 C129.657944,26.5185842 129.936911,27.5084008 130.308309,27.6275232 L130.308309,27.6274952 Z" id="path199"></path>
                    <path d="M119.625869,28.6895902 C119.558868,28.3558017 121.484032,28.3126862 121.763475,28.5944768 C122.042879,28.878045 121.855877,29.3491792 122.692361,29.3491792 C123.527503,29.3491792 123.15658,29.9154435 123.063737,30.1985757 C122.971329,30.4812551 122.042896,30.3870249 121.947866,30.1052343 C121.8559,29.8216661 120.461045,29.7261055 120.461045,29.7261055 C120.461045,29.7261055 119.718305,29.1598412 119.625903,28.6896126 L119.625869,28.6895902 Z" id="path201"></path>
                    <polygon id="polygon205" points="151.229462 8.47384174 150.493721 9.06942405 150.020745 8.58895802 149.626598 8.98853152 150.274751 9.64856117 150.454306 9.82856925 150.647 9.67033992 151.579814 8.9151949"></polygon>
                    <polygon id="polygon207" points="146.105553 6.75687574 145.509953 6.38041439 145.216533 6.86043595 145.961033 7.33067929 146.105553 7.42623913 146.254453 7.33067929 147.279235 6.66976071 146.981435 6.19285041"></polygon>
                    <polygon id="polygon209" points="143.110037 26.1581916 142.974276 26.1448576 142.045841 26.0470755 141.988909 26.6115453 142.785961 26.6915488 143.364043 27.6115902 143.83264 27.3093544 143.184487 26.2737523"></polygon>
                    <path d="M112.375673,52.4525689 L112.470703,53.4904034 L113.862942,53.4904034 C114.420871,53.4904034 113.399164,52.8303952 113.399164,52.8303952 C113.399164,52.8303952 112.28374,52.925067 112.375695,52.4526024 L112.375673,52.4525689 Z" id="path211"></path>
                    <rect id="rect213" transform="translate(114.604517, 52.500163) rotate(-50.395986) translate(-114.604517, -52.500163) " x="114.323089" y="52.1355542" width="1" height="1"></rect>
                    <rect id="rect215" transform="translate(97.692936, 34.922331) rotate(-44.950657) translate(-97.692936, -34.922331) " x="97.411901" y="34.5252487" width="1" height="1"></rect>
                    <polygon id="polygon219" points="124.208508 156.221811 123.280073 155.750679 123.030447 156.257368 123.612908 156.550715 123.420214 156.746279 123.81874 157.146297 124.282958 156.675165 124.554481 156.399597"></polygon>
                    <polygon id="polygon221" points="117.013139 149.430395 116.658407 148.99482 116.097842 149.465952 115.821939 149.701518 116.11536 149.914861 116.767892 150.385993 117.091968 149.928195 116.732856 149.665961"></polygon>
                    <path d="M186.113018,131.539518 C185.989954,131.059054 185.448202,130.861734 185.386936,130.841722 L185.209572,131.379522 L185.209572,131.376168 C185.253788,131.39305 185.318179,131.426813 185.382553,131.469062 L185.496421,131.957972 C185.454832,132.020642 185.409268,132.079314 185.373358,132.121535 L185.782393,132.504219 C186.080629,132.172203 186.190992,131.850416 186.11304,131.539725 L186.113018,131.539518 Z" id="path223"></path>
                    <polygon id="polygon225" points="186.969819 129.7584 186.063282 129.69173 186.133352 128.842803 187.03989 128.985032"></polygon>
                    <path d="M208.506453,122.405501 C208.903659,122.154377 209.411693,121.697028 209.342936,122.759738 C209.27243,123.820212 208.854635,123.467764 208.506453,123.820212 C208.158292,124.174454 207.948953,122.759738 208.506453,122.405501 Z" id="path227"></path>
                    <path d="M213.23557,118.40308 C213.227689,118.384409 213.222881,118.319074 213.218912,118.27152 C213.20667,118.115956 213.18649,117.903945 213.076144,117.681274 L212.578212,117.934176 C212.639959,118.060403 212.652223,118.193741 212.662732,118.321746 C212.676763,118.487086 212.695154,118.675988 212.853233,118.795546 C212.953087,118.871553 213.079213,118.893332 213.229427,118.864437 L213.123005,118.31686 C213.165936,118.323512 213.222417,118.362642 213.235554,118.403085 L213.23557,118.40308 Z" id="path231"></path>
                    <path d="M211.994596,118.867048 C212.136051,119.440411 212.342757,120.005334 212.351952,120.028868 L212.874849,119.829747 C212.870936,119.824716 212.668143,119.271499 212.534571,118.728355 L211.994596,118.867025 L211.994596,118.867048 Z" id="path233"></path>
                    <path d="M209.965436,121.091857 L209.410128,121.036293 C209.36675,121.481204 209.472758,122.031029 209.912007,122.120356 L210.021056,121.565663 C210.024969,121.565663 210.030224,121.569017 210.031565,121.569017 C209.986454,121.528993 209.945289,121.301448 209.965436,121.092103 L209.965436,121.091857 Z" id="path235"></path>
                    <path d="M207.522634,109.83924 C207.493717,109.657896 207.385104,109.517 207.217813,109.442777 C206.805273,109.261438 206.109824,109.561452 205.769115,109.792569 L206.077424,110.263703 C206.430403,110.024581 206.893728,109.909467 206.997087,109.962359 C206.987919,109.959005 206.975174,109.942347 206.971708,109.931223 L207.522634,109.839218 L207.522634,109.83924 Z" id="path237"></path>
                    <path d="M181.786378,79.7092811 C181.415002,80.0870739 180.578552,80.2755455 180.578552,80.2755455 L180.299149,81.3129328 L179.835807,81.6898368 C179.835807,81.6898368 179.927773,81.9725217 179.835807,82.6329772 C179.742527,83.2925941 178.906082,83.6703645 178.906082,83.6703645 L178.534707,84.1419403 C178.534707,84.1419403 176.294637,84.2632818 176.025759,84.1419403 C175.189275,83.7650363 175.747669,82.6329827 176.305163,82.7272297 C176.861784,82.8219015 176.211005,81.123578 176.211005,81.123578 L176.955478,81.029795 C176.955478,81.029795 177.047444,79.3315051 177.326853,79.3315051 C177.605821,79.3315051 177.234445,78.7661351 176.86132,78.483003 C176.48995,78.2012124 176.025731,77.258072 175.6526,77.3518159 C175.28123,77.4455989 173.794437,77.3518159 173.794437,77.3518159 L173.515469,77.9180802 L172.492895,78.1060878 C172.492895,78.1060878 172.580921,78.8354676 172.402243,79.0496754 C171.842575,79.7092923 169.706757,81.1240029 170.634693,78.7665544 L170.912783,78.2016316 L170.912783,77.3522351 L169.242052,77.2588993 C169.242052,77.2588993 168.405568,76.9753311 168.405568,76.5979967 C168.405568,76.2206455 168.312288,75.7499418 168.312288,75.7499418 L166.360381,73.5809761 L164.038418,73.2982911 L163.851422,72.8258265 L162.459183,72.6373717 C160.785377,71.7893168 159.298165,72.5431471 159.577552,73.9578912 C159.856083,75.3734962 160.319844,75.9388661 159.392306,75.9388661 C158.461687,75.9388661 158.276435,75.184611 158.276435,75.184611 C158.276435,75.184611 157.534142,74.9010428 157.534142,75.2779468 C157.534142,75.6557396 157.254739,76.4100283 157.534142,76.7869043 C157.811796,77.1638139 157.161017,77.7300447 156.882072,77.4469125 C156.605295,77.1637915 155.861231,76.3166198 156.047377,76.0335435 C156.232629,75.7504169 154.744969,73.9578745 156.232629,73.6751895 C157.719897,73.3920629 156.139785,72.543108 156.698156,72.3555644 L157.440449,71.9777716 L158.183189,71.9777716 L158.64828,71.5999732 L157.440454,71.4124128 L156.698162,71.317741 L155.303351,71.2235164 C153.910274,72.1666568 153.632173,73.2987383 153.632173,73.2987383 C152.887253,74.7130017 151.123225,72.7324739 151.77401,71.9782188 C152.423453,71.2235164 149.728862,71.8835526 149.263776,72.2608982 C148.798243,72.6378077 147.404718,72.4493529 147.404718,72.4493529 C147.126628,73.2987495 145.825942,72.3560172 146.196893,71.7897919 C146.568704,71.2239748 146.568704,70.8466516 146.568704,70.8466516 L146.104927,70.7519798 L145.547869,71.7893671 C144.246747,71.7893671 143.874063,72.5431751 144.152611,73.0151925 C144.431143,73.4858794 143.781242,72.9209623 143.594682,73.5810096 C143.410308,74.2410178 143.688834,74.2410178 144.246752,74.52415 C144.804688,74.8072766 143.967349,74.8072766 144.33916,75.2779579 C144.71053,75.7504225 145.825981,75.2779579 145.176035,75.9388605 C144.525698,76.5984775 143.22329,76.3166533 143.22329,76.3166533 C143.130887,77.1638139 141.365126,76.9762702 141.180769,76.6935629 C140.993768,76.4104363 139.601098,74.712588 139.601098,74.712588 L137.833157,74.6183578 C137.648783,73.2987327 138.670479,73.9583496 139.041877,72.9209623 C139.415438,71.8831277 139.601098,70.1866266 139.601098,70.1866266 C139.601098,70.1866266 138.112544,70.092402 138.020142,70.5635306 C137.928176,71.0355535 136.998406,71.3182329 136.998406,71.3182329 C136.998406,71.3182329 136.254325,71.6004707 136.533315,71.9782411 C136.812283,72.3560395 135.97538,72.5431639 135.97538,72.5431639 C135.97538,72.5431639 136.120339,73.1525269 135.882978,73.3921132 C135.140685,74.14771 133.280733,73.4858962 133.003079,73.203664 L131.887208,72.7320826 L130.771785,71.9778275 L129.471557,72.5427502 L129.100187,72.920543 L127.705377,72.920543 L127.613411,74.0508357 L130.122359,74.3335151 L130.308482,76.6678323 L129.285014,76.3153732 L128.634677,76.3153732 L128.356581,75.7491089 L127.798651,75.6544371 L127.798651,77.7287646 L128.356581,78.2012347 L128.822114,78.6714745 L129.751391,78.7661463 L129.937515,79.8973334 L132.259478,79.992894 L132.538446,80.463581 L133.933256,80.5582528 L136.627903,83.2921413 L136.441779,84.1415378 L135.976252,84.4246588 C136.163253,85.084667 134.769712,84.7077854 134.769712,84.7077854 L134.769712,85.2727081 L135.418317,85.3669327 L136.070387,85.7438367 L136.998826,84.1410794 C138.020561,83.4810712 138.484305,84.424206 138.578888,84.9900287 C138.670854,85.5558459 138.112924,85.4611573 138.112924,85.4611573 L138.112924,86.7825712 L138.670854,86.9701372 C139.601473,88.1021628 138.299484,88.7626741 138.299484,88.7626741 L138.02008,89.7053673 C137.741113,90.5543166 136.719405,90.3649842 136.719405,90.3649842 L136.348907,90.9312485 L135.232142,91.2143695 L137.438505,91.4970489 C137.64828,90.7423466 138.204443,90.5539085 138.483439,90.9312318 C138.762843,91.3090246 138.762843,91.9690663 138.762843,91.9690663 L139.322511,92.0632965 L139.227912,93.1002366 L139.785847,93.2895802 L139.785847,96.3070481 L140.436184,97.0613032 C141.551608,96.5910579 141.551608,97.3448714 140.993248,97.7213115 C140.436184,98.0977738 140.807118,99.7965333 140.807118,99.7965333 L140.342469,100.26722 L140.342469,101.02237 L139.785411,101.399279 L139.785411,102.43622 C138.855686,101.965085 137.740263,102.152651 137.46082,102.43622 C136.626125,101.869955 134.860364,102.059316 134.860364,102.531339 C135.416986,103.285594 134.210921,103.474479 134.210921,103.474479 L133.558851,104.228734 C134.024384,105.172322 133.095515,105.265674 133.095515,105.265674 L133.095515,107.058211 L131.979644,108.095598 L132.073802,110.547696 C132.073802,111.207705 133.466879,111.301504 133.744533,110.924606 C134.023937,110.547696 135.139791,111.679756 135.139791,111.679756 L135.974485,111.679756 L136.161481,109.981466 L135.60311,109.698339 L135.60311,106.963109 L136.532834,105.925274 C137.648258,105.548365 137.276916,108.378714 137.276916,108.661399 C137.369318,109.698339 137.83266,109.604539 138.298651,109.415207 C139.227537,109.038297 138.483025,110.453936 137.740716,110.358347 C136.997976,110.265011 137.461312,111.301488 137.461312,111.301488 L137.927281,111.490831 L137.089959,112.150839 L136.348505,113.000236 L135.416992,112.716662 L134.303301,112.623326 L133.931495,111.961529 L133.279816,111.867746 L133.187414,113.187371 L132.723636,113.753189 L131.608213,114.886556 C133.095481,114.886556 131.421211,115.921707 131.050277,115.921707 C131.886314,116.204834 130.957875,117.054627 128.820716,116.395066 L128.820716,117.054236 L128.076244,117.148902 L128.728314,117.902263 L129.470607,117.996935 L129.191639,119.600139 C129.191639,120.825964 126.12565,119.97616 125.846208,119.694369 L125.7538,121.392212 L125.19587,121.485106 L125.288272,122.618026 L125.19587,124.221678 L126.217605,124.032781 L126.217605,124.693237 L128.727895,124.787909 L132.351819,120.92015 L134.488531,120.449463 C134.673777,119.504981 135.602221,120.638359 135.602221,120.638359 C136.531946,120.54191 136.718092,121.203282 136.718092,121.203282 L137.926812,121.392178 C138.947653,121.675747 138.330592,121.774863 138.390589,122.147775 C138.482561,122.712698 138.947647,122.52379 138.947647,122.52379 L139.134649,121.297965 L139.692584,121.39219 L139.134649,120.731734 L138.11118,120.259264 L136.997043,119.788577 C136.252961,118.751637 137.18273,118.940522 137.926767,119.035216 L139.134593,119.035216 C139.134593,119.035216 140.529403,120.920211 140.529403,121.392229 C140.529403,121.864693 141.17974,121.95894 141.17974,121.95894 L142.014435,121.864269 L142.293839,122.523438 L143.129875,122.523438 L143.409279,123.088361 L145.082191,123.088361 L145.175034,122.240306 L143.593631,121.958963 L143.501665,121.014481 L142.387527,120.731354 C142.014402,119.129491 142.665175,118.657027 143.12982,119.412623 L143.687313,119.50507 L143.501189,118.09036 L144.15108,117.901463 L143.965834,115.920489 L143.408776,115.733364 L143.408776,115.072462 L145.730739,115.168469 C145.546365,113.940855 145.824455,113.375485 145.824455,113.375485 L146.474793,113.375485 L146.567195,113.848397 L149.410312,114.116408 L151.420466,111.810544 C151.319304,111.634538 151.622354,111.526976 151.401628,111.300744 C151.122224,111.018065 150.749558,111.300744 150.28313,111.018065 C149.819788,110.736716 150.28313,109.132175 150.191158,108.755299 C150.098756,108.37839 151.772562,107.810817 151.493566,108.661069 C151.214604,109.510466 151.493566,109.887342 151.493566,109.887342 C152.701392,108.75526 153.723575,109.980677 153.631172,110.264246 C153.536137,110.546925 154.280615,110.830063 154.744416,110.546925 C155.209943,110.264246 155.767437,111.396321 155.581346,111.960741 C155.394345,112.526558 153.72363,112.433206 153.631228,111.866958 C153.536193,111.300694 153.257225,111.490054 153.073293,111.773175 C152.886292,112.056302 152.051557,112.243868 151.586024,111.960741 C151.491867,111.903405 151.446761,111.855845 151.420483,111.810511 L149.410328,114.116375 L149.540832,114.129679 C150.65497,114.790582 150.098767,115.639084 149.727833,115.827522 C149.354708,116.016418 148.704365,116.016418 148.704365,116.016418 L148.519991,116.394216 L146.103445,116.581777 L145.916444,117.525812 C144.708618,117.335138 144.245265,118.656999 144.523814,119.316113 C144.803217,119.975282 144.523814,120.541938 144.523814,120.541938 L145.54594,121.014408 L146.845721,120.638387 C147.032717,119.693905 147.867457,119.50502 148.611929,118.940545 C149.354222,118.37428 150.563836,119.975696 150.190706,120.731293 C149.819336,121.484653 149.819336,121.768233 149.819336,121.768233 L149.911302,122.617573 L148.982863,122.994036 L148.240123,123.371834 L148.145524,123.843852 L145.637471,123.843852 L145.173693,124.314544 L143.964973,124.410994 L143.591853,124.975916 L142.757158,125.070588 C142.757158,125.070588 141.362348,125.731043 141.920675,126.485299 C142.478174,127.240448 139.598264,127.145754 138.946194,126.107506 C138.76007,127.049752 137.738368,126.20173 137.738368,126.20173 L136.716633,125.918162 L136.62423,124.505185 C136.438107,123.56115 134.672323,123.56115 134.766067,124.222058 C134.858469,124.882513 131.41935,124.505185 131.41935,124.505185 L130.305212,125.046546 L129.281744,125.636791 L129.189778,126.107483 L127.515972,126.29638 L126.773679,126.674173 L126.495148,126.107908 L125.752408,126.107908 L125.008326,127.14619 C123.057314,127.240862 121.199151,128.372463 121.384402,128.844033 C121.570526,129.31472 120.64211,129.788515 120.64211,129.788515 L119.804787,130.068081 L119.248602,130.917924 L118.133178,131.295717 L117.946177,133.277139 L117.389997,133.653154 L117.389997,134.502942 L116.738318,134.690061 L116.738318,135.162531 L115.809432,135.256756 L116.365612,136.671913 L117.111426,137.049706 C118.412101,137.236825 117.853719,138.841796 117.853719,138.841796 L118.596459,138.93469 L118.969578,139.97163 L119.711871,141.480588 C119.991275,142.613955 120.827741,142.330432 121.199139,142.236185 C121.570509,142.14329 121.941432,143.367372 121.941432,143.367372 L125.657758,143.462043 C125.657758,143.462043 125.473384,143.839836 126.123727,144.028308 C126.773171,144.215427 131.047935,144.406106 131.23492,144.12298 C131.047919,143.273192 133.556436,143.084251 134.579904,143.839411 C135.600745,144.592772 136.995556,144.12298 136.995556,144.12298 L138.38908,145.818642 L139.320146,147.894311 L140.898923,148.364998 L142.01306,148.648567 L142.386185,150.251771 L143.22088,150.346443 L143.500289,151.384725 C144.523311,152.138533 143.22088,153.742184 143.22088,153.742184 L143.22088,155.816064 L143.964962,156.193857 L143.871246,156.949454 L145.080804,158.173491 L146.473882,158.269493 L150.005851,162.041216 L152.792453,162.889271 L153.256225,164.398675 L154.001145,164.304009 L154.558202,163.833317 L156.787763,163.739092 L157.903634,162.700363 L159.11146,162.513244 L169.426079,153.742016 L168.49546,153.175752 L168.49546,151.101872 C170.168372,149.876047 170.261221,147.705739 168.681584,147.517245 C167.483373,147.374131 168.032141,146.102535 169.147548,145.914041 L169.796991,145.63225 L169.796991,144.782462 L171.93415,142.803276 L171.93415,141.293872 L167.289384,137.426113 C165.244237,136.672752 167.289384,132.144985 168.681623,132.239623 C170.076434,132.332512 168.589657,125.2611 168.589657,125.2611 L167.845184,124.884643 L168.032186,122.620089 L167.01045,122.620089 L165.337092,124.790396 L164.87332,126.298012 C164.687196,128.280776 158.925587,127.901217 158.646089,127.618084 C158.367121,127.334958 156.416528,126.486897 156.416528,126.486897 C156.416528,126.486897 154.929706,125.261072 154.650767,125.638842 C154.371799,126.016635 153.07199,125.166378 153.07199,125.449946 C153.07199,125.733067 151.864165,124.790776 151.864165,124.790776 L150.006002,124.129874 L151.400812,123.846306 L151.121408,122.715118 L153.535327,123.940944 C153.81473,124.316965 155.022595,124.224518 155.022595,124.224518 L155.393965,124.696535 C155.393965,124.696535 156.138438,124.600533 156.604418,125.167228 C157.068196,125.733492 159.483422,125.261894 159.483422,125.261894 L160.13376,125.826817 L161.155495,126.204615 L164.037127,126.299281 L164.129529,124.508533 L164.687464,123.942269 L164.594184,122.809349 L165.244522,122.244426 L165.244522,121.30218 L165.802457,121.113284 L165.894859,119.039403 L166.358637,118.944731 L166.358637,114.417412 L164.965112,113.096445 C164.873146,113.56891 163.386336,113.56891 163.386336,113.56891 C163.386336,113.56891 163.014966,114.228079 162.735999,114.228079 C162.457909,114.228079 163.107805,115.076134 162.921245,115.64279 C162.735999,116.207713 161.991968,116.207713 161.991968,116.207713 L160.597157,116.585953 L160.225782,117.057976 L158.738513,117.057976 L158.554145,115.83215 L160.225323,115.359686 L161.154601,114.88944 L161.620128,113.944958 C161.712094,113.003159 162.827954,113.096456 162.827954,113.096456 C162.827954,113.096456 164.965112,111.304366 165.057515,110.457206 C165.152108,109.607865 165.894837,107.249958 167.195121,107.249958 L169.611666,107.249958 C170.540105,106.871718 170.261557,105.646307 170.261557,105.646307 L171.46983,105.458741 L171.655959,106.118749 C171.655959,106.118749 173.329318,106.307204 173.514122,106.024083 C173.701118,105.742287 174.072052,105.080942 174.53759,105.364019 C175.001804,105.646704 176.488603,104.703563 176.488603,104.703563 C176.581011,104.043555 178.904254,104.326659 178.904254,104.326659 L179.183658,103.478157 C179.183658,103.478157 177.604435,101.309136 177.325495,101.309136 C177.046091,101.309136 175.559734,99.9877216 175.373141,100.459795 C173.888108,100.082885 173.980063,98.007697 173.980063,98.007697 L173.422128,96.6880719 C173.422128,95.9324751 172.029945,94.3297178 171.749216,94.5191061 C170.354406,93.4817188 171.377841,92.2554463 171.749216,92.1611993 C172.120586,92.0674163 173.051233,90.7464887 173.051233,90.7464887 L173.515011,89.4259692 L175.094682,88.9557238 L175.280805,87.7294513 L174.446111,87.6347795 C174.446111,87.6347795 175.373655,85.9369368 175.839188,85.9369368 C176.304715,85.9369368 179.371157,85.9369368 179.647917,85.7475932 C179.926884,85.5600272 180.483953,84.051092 180.483953,83.7679598 C180.483953,83.4848388 181.22932,83.3901671 181.50608,83.2954953 C181.785047,83.2021595 182.435357,82.4474403 182.621503,82.0696699 C182.807627,81.6900995 182.158603,79.3317566 181.785914,79.7091358 L181.786378,79.7092811 Z" id="path241"></path>
                    <path d="M130.308309,113.707502 C130.447572,113.567942 130.587713,114.132412 130.866239,114.061744 C131.143021,113.99107 131.284033,114.557323 131.005943,114.557323 C130.72654,114.557323 130.72654,114.91156 130.72654,115.052897 C130.72654,115.194686 130.72654,115.547145 130.516765,115.759581 C130.307867,115.972034 130.098098,115.83025 129.818689,115.688913 C129.540599,115.54757 129.402649,115.54757 129.052751,115.54757 C128.705032,115.54757 128.982244,116.113835 128.982244,116.113835 C128.982244,116.113835 127.518677,116.043161 127.798064,115.830261 C128.077032,115.619586 128.356,115.54714 128.147538,115.405356 C127.937769,115.264013 128.147538,115.123565 128.147538,114.840433 C128.147538,114.556865 128.84472,114.699096 128.63409,114.486196 C128.426506,114.273738 128.638562,113.453281 128.98225,113.919932 L129.192461,113.423906 C128.98225,113.212342 129.123268,113.140785 128.705038,113.001667 C128.287243,112.859883 128.63409,112.010509 128.63409,112.010509 L128.705038,111.444692 C128.844301,110.738901 130.237361,110.666903 130.307907,111.302907 C130.376663,111.939829 130.307907,112.364276 130.307907,112.364276 L130.726579,112.505171 C130.726579,112.505171 130.656067,112.931854 130.307907,112.931854 C129.957997,112.931854 130.307907,113.141198 130.098137,113.35454 L130.308348,113.707446 L130.308309,113.707502 Z" id="path245"></path>
                    <path d="M125.707761,114.417428 C125.917536,113.992518 126.404495,112.153769 126.962877,112.720033 C127.518621,113.28585 127.868118,112.720033 127.868118,112.720033 C127.868118,112.720033 128.147085,113.003601 128.007386,113.569429 C127.868118,114.134352 127.727977,114.701064 127.378514,114.771721 C127.031232,114.842395 126.751822,115.054848 126.335761,115.125516 C125.917966,115.196632 125.707761,114.41749 125.707761,114.41749 L125.707761,114.417428 Z" id="path247"></path>
                </g>
                <path d="M395.288547,319.096912 C395.288547,357.818388 363.898588,389.208347 325.177112,389.208347 C286.455636,389.208347 255.065677,357.818388 255.065677,319.096912 C255.065677,280.375436 286.455636,248.985477 325.177112,248.985477 C363.898588,248.985477 395.288547,280.375436 395.288547,319.096912 Z" id="path3194" fill="#E38A15"></path>
                <path d="M140.22287,70.111435 C140.22287,108.832911 108.832911,140.22287 70.111435,140.22287 C31.3899587,140.22287 0,108.832911 0,70.111435 C0,31.3899587 31.3899587,0 70.111435,0 C108.832911,0 140.22287,31.3899587 140.22287,70.111435 Z" id="path3209" fill="#E38A15"></path>
                <path d="M140.22287,319.096912 C140.22287,357.818388 108.832911,389.208347 70.111435,389.208347 C31.3899587,389.208347 0,357.818388 0,319.096912 C0,280.375436 31.3899587,248.985477 70.111435,248.985477 C108.832911,248.985477 140.22287,280.375436 140.22287,319.096912 Z" id="path3211" fill="#E38A15"></path>
                <path d="M140.22287,564.659865 C140.22287,603.381341 108.832911,634.7713 70.111435,634.7713 C31.3899587,634.7713 0,603.381341 0,564.659865 C0,525.938389 31.3899587,494.54843 70.111435,494.54843 C108.832911,494.54843 140.22287,525.938389 140.22287,564.659865 Z" id="path3213" fill="#E38914"></path>
                <path d="M395.288547,564.659865 C395.288547,603.381341 363.898588,634.7713 325.177112,634.7713 C286.455636,634.7713 255.065677,603.381341 255.065677,564.659865 C255.065677,525.938389 286.455636,494.54843 325.177112,494.54843 C363.898588,494.54843 395.288547,525.938389 395.288547,564.659865 Z" id="path3215" fill="#E38914"></path>
                <path d="M650.35422,564.659865 C650.35422,603.381341 618.964261,634.7713 580.242785,634.7713 C541.521309,634.7713 510.13135,603.381341 510.13135,564.659865 C510.13135,525.938389 541.521309,494.54843 580.242785,494.54843 C618.964261,494.54843 650.35422,525.938389 650.35422,564.659865 Z" id="path3217" fill="#E38914"></path>
                <path d="M650.35422,70.111435 C650.35422,108.832911 618.964261,140.22287 580.242785,140.22287 C541.521309,140.22287 510.13135,108.832911 510.13135,70.111435 C510.13135,31.3899587 541.521309,0 580.242785,0 C618.964261,0 650.35422,31.3899587 650.35422,70.111435 Z" id="path3219" fill="#E38A15"></path>
                <path d="M395.288547,70.111435 C395.288547,108.832911 363.898588,140.22287 325.177112,140.22287 C286.455636,140.22287 255.065677,108.832911 255.065677,70.111435 C255.065677,31.3899587 286.455636,0 325.177112,0 C363.898588,0 395.288547,31.3899587 395.288547,70.111435 Z" id="path3221" fill="#E38A15"></path>
            </g>
        </g>
    </g>
</svg>